<svg width="45" height="45" viewBox="0 0 45 45" fill="none" xmlns="http://www.w3.org/2000/svg">
<circle cx="22.5" cy="22.5" r="22.5" fill="url(#paint0_linear_583_798)"/>
<path d="M23.24 13.4004C17.96 13.4004 15.2 16.7604 15.2 20.4804C15.2 22.2804 16.16 24.0804 17.72 25.0404C18.2 25.2804 18.08 25.0404 18.44 23.6004C18.44 23.4804 18.44 23.3604 18.32 23.2404C16.16 20.6004 17.96 15.4404 23 15.4404C30.32 15.4404 28.88 25.5204 24.32 25.5204C23.36 25.6404 22.52 24.9204 22.52 23.9604V23.4804C23 22.1604 23.36 20.9604 23.48 19.6404C23.48 17.1204 19.76 17.4804 19.76 20.8404C19.76 21.4404 19.88 22.0404 20.12 22.5204C20.12 22.5204 18.92 27.4404 18.68 28.2804C18.44 29.7204 18.56 31.1604 18.8 32.4804C18.68 32.6004 18.8 32.6004 18.8 32.6004H18.92C19.76 31.4004 20.48 30.2004 20.96 28.8804C21.08 28.2804 21.68 26.1204 21.68 26.1204C22.28 26.9604 23.36 27.4404 24.44 27.4404C28.16 27.4404 30.8 24.2004 30.8 20.2404C30.8 16.2804 27.44 13.4004 23.24 13.4004Z" fill="white"/>
<defs>
<linearGradient id="paint0_linear_583_798" x1="22.5" y1="0" x2="22.5" y2="45" gradientUnits="userSpaceOnUse">
<stop stop-color="#60697A"/>
<stop offset="1" stop-color="#313C52"/>
</linearGradient>
</defs>
</svg>
