<svg width="652" height="179" viewBox="0 0 652 179" fill="none" xmlns="http://www.w3.org/2000/svg">
<g clip-path="url(#clip0_1166_130)">
<path d="M90 179C139.706 179 180 138.929 180 89.5C180 40.0705 139.706 0 90 0C40.2944 0 0 40.0705 0 89.5C0 138.929 40.2944 179 90 179Z" fill="white"/>
<path d="M90.479 9C73.7614 8.99652 57.4579 14.2003 43.8336 23.8883C30.2094 33.5763 19.9411 47.2675 14.4554 63.0594C8.96977 78.8513 8.53918 95.9598 13.2235 112.008C17.9078 128.056 27.4744 142.246 40.594 152.607L42.237 150.242C29.6077 140.227 20.4083 126.53 15.9149 111.05C11.4215 95.5709 11.8569 79.0767 17.1608 63.856C22.4646 48.6352 32.3739 35.4424 45.514 26.1076C58.6542 16.7728 74.3737 11.7588 90.4921 11.7611C106.61 11.7635 122.329 16.782 135.466 26.1207C148.603 35.4593 158.509 48.655 163.808 63.8773C169.108 79.0996 169.538 95.5938 165.04 111.072C160.543 126.55 151.339 140.245 138.707 150.256L140.591 152.423C153.649 142.028 163.152 127.83 167.783 111.795C172.415 95.76 171.945 78.6817 166.44 62.9253C160.935 47.1689 150.666 33.5144 137.056 23.8527C123.447 14.1911 107.169 9.00056 90.479 9V9Z" fill="url(#paint0_linear_1166_130)"/>
<path d="M44.092 154.472C45.055 155.053 45.423 155.109 45.792 154.614L49.9 148.963C50.325 148.368 50.282 148.17 49.787 147.915L49.164 147.603L49.348 147.348L51.742 147.848C52.153 147.948 52.142 148.16 51.997 148.358L46.868 155.397C46.514 155.879 46.684 156.233 47.505 156.955L47.321 157.224L43.908 154.731L44.092 154.472Z" fill="#1B1C1C"/>
<path d="M52.477 154.619C53.777 152.268 56.188 150.667 58.638 152.013C61.088 153.359 61.018 156.262 59.714 158.613C58.41 160.964 55.989 162.579 53.539 161.233C51.089 159.887 51.174 156.984 52.477 154.619V154.619ZM58.284 157.819C59.757 155.156 59.87 153.187 58.426 152.394C56.953 151.587 55.367 152.734 53.894 155.394C52.421 158.054 52.294 160.026 53.752 160.847C55.196 161.644 56.797 160.511 58.284 157.82V157.819Z" fill="#1B1C1C"/>
<path d="M62.8159 160C63.7079 157.465 65.8159 155.482 68.4669 156.4C71.1179 157.318 71.5119 160.2 70.6199 162.731C69.7279 165.262 67.6029 167.263 64.9689 166.331C62.3349 165.425 61.9239 162.55 62.8159 160ZM69.0759 162.2C70.0819 159.325 69.8689 157.37 68.3249 156.832C66.7529 156.28 65.3649 157.668 64.3589 160.543C63.3529 163.418 63.5369 165.387 65.1239 165.943C66.6689 166.487 68.0569 165.085 69.0769 162.195L69.0759 162.2Z" fill="#1B1C1C"/>
<path d="M82.8018 160.071L74.4168 168.895L73.1418 168.682L81.9088 160.311C80.6088 161.019 79.4868 160.424 78.4668 159.9C78.6303 160.274 78.6746 160.69 78.5938 161.09C78.4578 161.754 78.0756 162.342 77.524 162.736C76.9725 163.13 76.2922 163.301 75.6198 163.215C75.3864 163.176 75.1637 163.089 74.9657 162.959C74.7677 162.829 74.5988 162.66 74.4696 162.462C74.3404 162.263 74.2539 162.04 74.2154 161.807C74.1768 161.573 74.1872 161.334 74.2458 161.105C74.3849 160.442 74.7678 159.856 75.3186 159.463C75.8694 159.069 76.548 158.897 77.2198 158.98C79.6278 159.391 79.9388 160.807 82.2478 159.957L82.8018 160.071ZM77.4908 161.105C77.6328 160.255 77.5478 159.462 76.8388 159.335C76.0598 159.208 75.5928 160.086 75.4078 161.12C75.2658 161.956 75.3508 162.763 76.0598 162.876C76.8248 163.031 77.3058 162.153 77.4898 161.105H77.4908ZM82.1908 167.79C82.0518 168.452 81.6689 169.039 81.1181 169.432C80.5673 169.826 79.8887 169.998 79.2168 169.915C78.9838 169.877 78.7612 169.791 78.5633 169.662C78.3653 169.534 78.1963 169.365 78.0671 169.168C77.9378 168.97 77.8511 168.748 77.8125 168.515C77.7739 168.282 77.7842 168.044 77.8428 167.815C77.9776 167.149 78.3588 166.559 78.9103 166.162C79.4618 165.765 80.1428 165.592 80.8168 165.676C81.0523 165.712 81.2775 165.797 81.4777 165.926C81.6778 166.055 81.8485 166.225 81.9784 166.425C82.1083 166.624 82.1946 166.849 82.2316 167.084C82.2685 167.32 82.2553 167.56 82.1928 167.79H82.1908ZM81.0578 167.776C81.1998 166.926 81.1148 166.133 80.4058 166.006C79.6268 165.879 79.1598 166.757 78.9748 167.791C78.8328 168.641 78.9178 169.434 79.6268 169.561C80.4078 169.688 80.8748 168.81 81.0618 167.776H81.0578Z" fill="#1B1C1C"/>
<path d="M90.9889 170.298C91.6549 170.142 91.9799 169.998 91.9379 169.406L91.4559 161.644C91.4139 161.049 91.0739 160.95 90.3939 160.865L90.3799 160.539L94.8979 160.256C97.6319 160.086 99.2459 161.078 99.3739 163.056C99.5019 165.034 98.0429 166.328 95.2949 166.498L94.2039 166.569C93.5239 166.611 93.2979 166.881 93.3399 167.49L93.4529 169.317C93.4949 169.912 93.8529 170.011 94.6849 170.068L94.6989 170.408L90.9879 170.635L90.9889 170.298ZM95.2519 166.006C95.6135 166.033 95.9766 165.977 96.3128 165.841C96.6491 165.705 96.9494 165.493 97.1906 165.222C97.4318 164.951 97.6072 164.629 97.7034 164.279C97.7995 163.929 97.8137 163.562 97.7449 163.206C97.7689 162.846 97.709 162.485 97.5697 162.151C97.4305 161.818 97.2157 161.522 96.9425 161.286C96.6692 161.049 96.3448 160.88 95.9948 160.79C95.6449 160.701 95.279 160.694 94.9259 160.77L93.5659 160.855C93.1839 160.883 92.9289 161.011 92.9569 161.577L93.1839 165.277C93.2259 165.872 93.4669 166.127 94.1609 166.084L95.2519 166.006Z" fill="#1B1C1C"/>
<path d="M103.438 165.383L102.319 160.683C102.177 160.088 101.819 160.06 101.143 160.088L101.072 159.776L104.528 158.954L104.599 159.266C103.976 159.549 103.664 159.733 103.806 160.328L104.854 164.728C105.463 167.292 106.823 168.241 108.565 167.828C110.081 167.474 111.327 166.256 110.665 163.451L109.603 158.951C109.461 158.37 109.051 158.342 108.371 158.37L108.3 158.058L110.934 157.435L111.005 157.747C110.396 158.03 110.056 158.229 110.184 158.809L111.275 163.409C111.927 166.143 110.864 167.984 108.4 168.579C106.144 169.137 104.118 168.244 103.438 165.383V165.383Z" fill="#1B1C1C"/>
<path d="M116.668 165.741C117.235 165.373 117.49 165.132 117.263 164.58L114.163 157.456C113.922 156.904 113.568 156.932 112.902 157.088L112.775 156.788L116.953 154.975C119.347 153.927 120.976 154.323 121.67 155.91C122.194 157.11 121.797 158.162 120.523 159.139C120.423 159.21 120.466 159.295 120.58 159.266C121.042 159.214 121.51 159.287 121.934 159.479C122.358 159.672 122.722 159.975 122.988 160.357C124.188 161.745 124.744 162.241 125.353 161.972L125.495 162.284L125.084 162.468C123.584 163.12 122.69 162.496 121.584 161.168C121.264 160.656 120.757 160.287 120.171 160.139C119.585 159.991 118.965 160.076 118.44 160.375C117.534 160.775 117.42 161.097 117.661 161.65L118.681 163.987C118.922 164.539 119.29 164.497 120.097 164.27L120.239 164.582L116.826 166.069L116.668 165.741ZM119.033 159.523C119.332 159.441 119.608 159.291 119.84 159.084C120.071 158.878 120.252 158.621 120.368 158.333C120.484 158.045 120.532 157.735 120.509 157.425C120.485 157.116 120.391 156.816 120.233 156.549C120.143 156.246 119.984 155.967 119.768 155.735C119.552 155.503 119.286 155.325 118.989 155.214C118.693 155.102 118.374 155.062 118.059 155.094C117.744 155.127 117.441 155.232 117.174 155.402L115.874 155.969C115.52 156.125 115.322 156.337 115.548 156.861L116.738 159.58C116.979 160.132 117.29 160.274 117.928 160.005L119.033 159.523Z" fill="#1B1C1C"/>
<path d="M128.466 160.227C128.966 159.76 129.174 159.49 128.848 158.981L124.613 152.481C124.287 151.971 123.947 152.07 123.313 152.325L123.129 152.056L129.489 147.906C129.616 147.821 129.716 147.821 129.801 147.934C130.186 148.396 130.602 148.83 131.047 149.234L130.778 149.404C130.414 149.104 129.958 148.938 129.487 148.933C129.015 148.928 128.556 149.084 128.186 149.376L126.386 150.552C125.819 150.92 125.593 151.232 125.904 151.699L127.42 154.036C127.732 154.518 128.114 154.418 128.666 154.05L130.054 153.144C130.918 152.577 130.876 152.124 130.578 151.444L130.805 151.302L132.349 153.667L132.122 153.809C132.029 153.664 131.906 153.542 131.76 153.45C131.615 153.359 131.45 153.301 131.28 153.28C131.109 153.26 130.936 153.278 130.773 153.333C130.61 153.388 130.461 153.478 130.337 153.597L128.949 154.503C128.382 154.871 128.156 155.183 128.467 155.664L130.082 158.129C130.394 158.611 130.762 158.54 131.782 157.86L133.382 156.798C134.402 156.118 134.501 155.622 134.473 155.112V154.39L134.756 154.206C134.806 154.815 134.99 155.405 135.294 155.934C135.311 155.963 135.321 155.995 135.325 156.028C135.329 156.061 135.326 156.094 135.317 156.126C135.308 156.158 135.292 156.187 135.271 156.213C135.25 156.238 135.223 156.259 135.194 156.274L128.636 160.551L128.466 160.227Z" fill="#1B1C1C"/>
<path d="M50.8909 96.5893C50.8909 97.3683 49.7009 98.6713 48.9219 99.9743C48.7172 100.235 48.5764 100.541 48.5109 100.866C48.5109 100.979 48.5679 101.107 48.6809 101.107C52.5619 96.7733 55.8899 95.6543 56.9099 95.6543C57.8589 95.6543 59.0489 96.6033 59.0489 98.4543C59.0349 101.788 54.5029 110.286 47.7149 110.274C46.4689 110.274 45.6899 109.382 45.4489 109.382C44.3159 109.382 41.0299 119.311 41.0159 123.716C41.0159 124.962 41.3159 125.387 41.3159 126.096C41.254 126.495 41.0623 126.863 40.7703 127.142C40.4783 127.421 40.1024 127.596 39.7009 127.64C38.9929 127.64 38.2699 127.102 38.2849 125.671C38.2989 120.558 41.0469 112.343 42.4919 108.363C43.7529 104.794 46.0189 99.6813 46.7409 98.2633C47.5199 96.8323 48.2989 95.6433 49.3049 95.6573C49.8709 95.6263 50.8909 95.8673 50.8909 96.5893V96.5893ZM47.9449 107.821C52.8879 107.835 56.2869 100.821 56.2869 99.2663C56.2876 99.1515 56.2646 99.0378 56.2192 98.9323C56.1739 98.8269 56.1073 98.7319 56.0235 98.6534C55.9398 98.5749 55.8407 98.5146 55.7325 98.4762C55.6243 98.4378 55.5094 98.4222 55.3949 98.4303C53.2559 98.4303 47.1659 103.94 46.0889 106.857C46.2985 107.155 46.5765 107.398 46.8995 107.565C47.2225 107.733 47.581 107.821 47.9449 107.821V107.821Z" fill="url(#paint1_linear_1166_130)"/>
<path d="M73.9638 95.9802C74.9128 95.9802 75.5078 96.5182 75.5078 97.2262C75.5078 98.0052 73.9498 100.016 72.7078 102.396C72.0813 103.421 71.7121 104.583 71.6318 105.781C71.6318 106.56 71.8728 107.212 72.3968 107.212C74.5358 107.212 78.1188 103.412 80.3288 100.569C80.9808 99.6772 81.5188 99.0822 82.1138 99.0822C82.2268 99.0689 82.3414 99.0814 82.4489 99.1187C82.5564 99.156 82.654 99.2171 82.7345 99.2976C82.8149 99.378 82.8761 99.4757 82.9134 99.5832C82.9507 99.6907 82.9632 99.8052 82.9499 99.9182C82.9499 100.456 82.7088 100.81 82.0578 101.646C79.1968 105.031 74.5368 109.606 71.5578 109.592C71.1854 109.612 70.813 109.553 70.4649 109.419C70.1168 109.285 69.8009 109.079 69.5376 108.815C69.2744 108.551 69.0698 108.234 68.9371 107.886C68.8045 107.537 68.7468 107.165 68.7678 106.792C68.7678 106.14 68.8948 105.305 68.8948 104.767C68.8948 104.413 68.8948 104.229 68.7818 104.229C68.4278 104.229 67.4818 105.362 66.1618 106.538C63.3618 108.974 61.5158 110.15 60.1418 110.15C59.6213 110.028 59.1589 109.73 58.8332 109.306C58.5075 108.882 58.3385 108.359 58.3548 107.824C58.3688 101.762 64.8698 95.8842 69.7428 95.8242C70.8758 95.8242 71.9428 97.1982 72.1788 97.1982C72.6598 97.2242 72.9578 95.9802 73.9638 95.9802V95.9802ZM61.0888 106.603C61.0853 106.697 61.1013 106.791 61.1356 106.878C61.1699 106.966 61.222 107.045 61.2884 107.112C61.3549 107.178 61.4343 107.23 61.5218 107.264C61.6093 107.299 61.7029 107.315 61.7968 107.311C62.8028 107.311 70.5498 100.611 70.5638 99.5922C70.5638 99.2922 69.5578 99.4792 69.5578 98.8132C69.5693 98.7223 69.5607 98.63 69.5328 98.5427C69.5049 98.4554 69.4583 98.3753 69.3962 98.3079C69.3341 98.2405 69.2581 98.1874 69.1734 98.1524C69.0887 98.1174 68.9974 98.1013 68.9059 98.1052C66.3429 98.1042 61.1028 103.685 61.0888 106.603V106.603Z" fill="url(#paint2_linear_1166_130)"/>
<path d="M80.4928 101.345C80.4928 98.257 84.1328 95.878 86.6928 95.892C87.289 95.8807 87.8671 96.097 88.3093 96.4971C88.7515 96.8971 89.0246 97.4507 89.0728 98.045C89.0728 99.291 88.2938 101.019 87.1038 101.019C86.4518 101.019 85.8578 100.665 85.8578 99.999C85.8578 99.163 86.5098 98.993 86.5098 98.699C86.5209 98.6183 86.5132 98.5361 86.4872 98.4588C86.4612 98.3816 86.4177 98.3114 86.3601 98.2538C86.3025 98.1961 86.2323 98.1526 86.155 98.1266C86.0778 98.1007 85.9956 98.0929 85.9148 98.104C85.1986 98.211 84.5389 98.5546 84.0408 99.0803C83.5428 99.6059 83.2351 100.283 83.1668 101.004C83.1668 102.675 87.3878 102.435 87.4438 106.131C89.4345 104.515 91.2182 102.66 92.7548 100.607C93.4068 99.715 93.9448 99.12 94.5958 99.12C95.1338 99.12 95.3608 99.474 95.3608 99.956C95.3608 100.494 95.1768 100.848 94.4688 101.684C92.0888 104.474 86.9478 110.352 82.2598 110.338C80.1778 110.338 78.8178 109.205 78.8178 107.888C78.8018 107.703 78.8237 107.516 78.882 107.34C78.9404 107.164 79.034 107.001 79.1572 106.862C79.2804 106.723 79.4306 106.61 79.5986 106.531C79.7667 106.452 79.9491 106.408 80.1348 106.401C80.6728 106.401 81.2108 106.642 81.2108 107.293C81.2108 107.944 81.5108 108.426 82.6418 108.426C82.925 108.425 83.2049 108.366 83.4647 108.254C83.7245 108.141 83.9588 107.977 84.1534 107.771C84.348 107.566 84.4989 107.323 84.597 107.057C84.695 106.792 84.7382 106.509 84.7238 106.226C84.7138 103.912 80.4928 104.025 80.4928 101.345V101.345Z" fill="url(#paint3_linear_1166_130)"/>
<path d="M92.8729 101.377C92.8729 98.2894 97.4049 95.4424 100.026 95.4424C100.616 95.4515 101.183 95.675 101.621 96.0711C102.059 96.4672 102.338 97.0089 102.406 97.5954C102.406 98.8414 101.627 100.923 100.437 100.923C99.7849 100.923 99.1909 100.569 99.1909 99.9034C99.1909 98.8974 100.083 98.7134 100.083 98.4724C100.052 98.2572 99.9453 98.0602 99.7815 97.9172C99.6178 97.7742 99.4082 97.6948 99.1909 97.6934C98.3549 97.6934 95.5509 99.2934 95.5509 101.022C95.5509 102.693 99.8279 102.453 99.8279 106.263C99.8279 108.232 98.0999 110.371 94.6439 110.356C92.5619 110.356 90.9609 108.856 90.9609 107.438C90.9491 107.254 90.9739 107.069 91.0338 106.895C91.0937 106.72 91.1876 106.559 91.31 106.421C91.4324 106.283 91.5809 106.17 91.747 106.089C91.9131 106.009 92.0935 105.962 92.2779 105.951C92.8159 105.951 93.3539 106.251 93.3399 106.843C93.3166 107.065 93.344 107.29 93.4199 107.499C93.4958 107.709 93.6184 107.899 93.7783 108.054C93.9381 108.21 94.1312 108.327 94.343 108.397C94.5548 108.468 94.7797 108.489 95.0009 108.459C95.284 108.458 95.5639 108.399 95.8237 108.287C96.0835 108.174 96.3178 108.01 96.5125 107.805C96.7071 107.599 96.858 107.356 96.956 107.091C97.054 106.825 97.0972 106.542 97.0829 106.259C97.0939 103.94 92.8729 104.054 92.8729 101.377V101.377Z" fill="url(#paint4_linear_1166_130)"/>
<path d="M118.041 100.654C118.763 99.7624 119.287 99.1674 119.896 99.1674C120.009 99.1541 120.123 99.1665 120.231 99.2038C120.338 99.2411 120.436 99.3023 120.517 99.3828C120.597 99.4632 120.658 99.5609 120.695 99.6683C120.733 99.7758 120.745 99.8904 120.732 100.003C120.732 100.541 120.491 100.895 119.84 101.731C116.979 105.116 112.078 110.399 105.478 110.385C104.521 110.298 103.629 109.862 102.973 109.159C102.317 108.456 101.944 107.536 101.923 106.575C101.923 105.98 101.753 105.796 101.753 105.201C101.786 104.896 101.898 104.603 102.076 104.353C102.255 104.102 102.495 103.902 102.773 103.77C105.223 98.1194 109.218 95.8704 112.249 95.8814C112.837 95.8787 113.407 96.0875 113.854 96.4696C114.301 96.8518 114.596 97.3819 114.685 97.9634C114.685 100.994 109.501 104.436 105.804 105.257C104.728 105.498 104.671 105.852 104.671 106.447C104.662 106.684 104.702 106.92 104.788 107.141C104.875 107.362 105.006 107.562 105.173 107.73C105.341 107.897 105.541 108.029 105.762 108.115C105.983 108.202 106.219 108.242 106.456 108.232C111.654 108.26 115.889 103.515 118.041 100.654V100.654ZM105.421 103.43C107.503 103.373 112.205 100.059 112.221 98.7984C112.221 98.3164 111.98 98.2034 111.513 98.2034C109.656 98.2044 106.314 102 105.421 103.43Z" fill="url(#paint5_linear_1166_130)"/>
<path d="M132.462 84.9182C134.969 79.6182 137.773 77.3122 139.856 77.3122C140.223 77.3012 140.589 77.3698 140.927 77.5133C141.266 77.6568 141.569 77.8718 141.817 78.1436C142.064 78.4153 142.25 78.7374 142.361 79.0877C142.473 79.4381 142.507 79.8084 142.462 80.1732C142.462 81.8442 141.91 84.6912 138.562 90.0452C134.568 96.4052 130.333 100.087 129.61 101.504C129.05 102.839 128.784 104.279 128.831 105.725C128.831 107.156 128.888 110.3 130.545 110.725C131.083 110.782 131.494 110.909 131.494 111.207C131.494 111.689 130.545 112.34 129.355 112.326C126.678 112.326 126.267 108.87 126.281 106.49V105.182C123.59 108.51 119.964 110.582 117.938 110.582C117.526 110.57 117.121 110.475 116.746 110.302C116.372 110.129 116.037 109.883 115.76 109.577C115.484 109.271 115.272 108.913 115.138 108.524C115.003 108.134 114.949 107.721 114.978 107.31C114.992 103.033 120.898 95.9652 124.765 95.9652C125.972 95.9967 127.146 96.3698 128.15 97.0412C129.157 92.8597 130.602 88.7962 132.462 84.9182V84.9182ZM117.602 106.73C117.592 106.912 117.621 107.094 117.686 107.264C117.751 107.434 117.85 107.588 117.978 107.717C118.106 107.847 118.26 107.948 118.429 108.015C118.599 108.081 118.78 108.112 118.962 108.104C120.987 108.104 127.007 101.759 126.95 100.271C126.836 100.276 126.723 100.257 126.616 100.218C126.51 100.178 126.412 100.117 126.329 100.04C126.246 99.9618 126.179 99.8683 126.133 99.7646C126.086 99.6608 126.061 99.5489 126.058 99.4352C126.002 99.1362 125.839 98.8677 125.6 98.68C125.361 98.4923 125.061 98.3981 124.758 98.4152C121.962 98.5822 117.602 104.464 117.602 106.73ZM134.429 85.9382C132.698 89.6073 131.373 93.4544 130.477 97.4112C132.934 94.7526 135.076 91.8199 136.862 88.6712C139.496 84.0392 140.148 82.3712 140.148 80.6402C140.148 80.1582 140.148 79.5642 139.496 79.5072C138.905 79.5222 136.993 80.8822 134.429 85.9382V85.9382Z" fill="url(#paint6_linear_1166_130)"/>
<path d="M34.6591 73.2899C34.6591 66.2219 40.2681 62.1709 45.9481 62.1709C50.8771 62.1709 53.7951 65.1599 53.7951 67.3709C53.8168 67.6148 53.7868 67.8606 53.7073 68.0922C53.6278 68.3238 53.5004 68.5361 53.3335 68.7153C53.1666 68.8945 52.9638 69.0366 52.7384 69.1323C52.513 69.228 52.27 69.2752 52.0251 69.2709C51.8101 69.2891 51.5936 69.262 51.3897 69.1915C51.1857 69.1209 50.9988 69.0085 50.8409 68.8614C50.6831 68.7142 50.5577 68.5357 50.473 68.3372C50.3883 68.1387 50.3461 67.9247 50.3491 67.7089C50.3491 65.7689 48.8191 63.2189 44.8821 63.2189C40.5341 63.2189 37.3751 66.3779 37.3751 71.6459C37.3751 77.9059 41.8931 82.8639 47.7431 82.8639C49.3721 82.8639 50.7741 82.4959 50.7741 80.6539V76.5469C50.7741 75.1159 50.3631 74.9179 47.8141 74.7059V74.1959L55.4341 74.1679V74.7059C53.5641 74.9469 53.2951 75.1169 53.2951 76.5469V83.8309C51.2841 82.2019 49.4851 84.1709 45.5761 84.1709C44.1359 84.2061 42.7035 83.949 41.3655 83.4151C40.0274 82.8812 38.8115 82.0816 37.7911 81.0646C36.7708 80.0476 35.9672 78.8343 35.4289 77.498C34.8905 76.1617 34.6287 74.7302 34.6591 73.2899Z" fill="#353A3A"/>
<path d="M56.953 73.2899C56.953 66.2219 62.562 62.1709 68.242 62.1709C73.001 62.1709 76.032 65.2019 76.032 67.5819C76.053 67.8282 76.0216 68.0762 75.94 68.3095C75.8583 68.5428 75.7282 68.7562 75.5582 68.9357C75.3882 69.1151 75.1821 69.2566 74.9536 69.3507C74.725 69.4449 74.4791 69.4896 74.232 69.4819C73.382 69.4819 72.603 68.8729 72.603 67.4709C72.603 65.7709 71.003 63.2219 67.334 63.2219C62.844 63.2219 59.686 66.3809 59.686 71.5219C59.686 77.9099 64.034 82.2299 69.714 82.2299C70.9224 82.2359 72.116 81.963 73.2017 81.4324C74.2875 80.9019 75.2362 80.128 75.974 79.1709L76.385 79.5109C75.503 80.9664 74.2527 82.1635 72.7604 82.9817C71.2681 83.7998 69.5864 84.21 67.885 84.1709C66.4437 84.2077 65.0098 83.9518 63.6702 83.4187C62.3306 82.8856 61.113 82.0863 60.0912 81.0692C59.0693 80.052 58.2643 78.8382 57.7249 77.5011C57.1855 76.164 56.9229 74.7314 56.953 73.2899V73.2899Z" fill="#353A3A"/>
<path d="M93.9491 62.0288H95.1101L86.0311 83.8288H84.8701L93.9491 62.0288Z" fill="#353A3A"/>
<path d="M126.851 64.961V81.589C126.851 82.807 127.531 82.977 128.862 83.26V83.841H122.191V83.26C123.48 82.989 124.164 82.822 124.164 81.589V64.789L115.964 81.589H115.043L106.455 64.919V81.575C106.455 82.793 107.107 82.963 108.355 83.246V83.827H103.424V83.246C104.755 82.977 105.393 82.807 105.393 81.575V64.961C105.393 63.743 104.741 63.573 103.424 63.29V62.709H108.282L116.412 78.589L124.164 62.709H128.852V63.289C127.531 63.559 126.851 63.729 126.851 64.961Z" fill="#353A3A"/>
<path d="M131.738 82.5386C130.789 80.1586 130.916 77.6096 131.766 77.6096C132.035 77.6096 132.177 77.6376 132.276 77.9496C132.668 79.4751 133.561 80.8244 134.813 81.7802C136.064 82.736 137.601 83.2427 139.176 83.2186C141.626 83.1476 143.453 82.0286 143.453 79.3376C143.453 76.0376 140.634 75.3996 137.646 74.3376C133.808 73.0066 131.046 71.3066 131.046 67.8076C131.046 64.6776 133.666 62.1706 138.525 62.1706C140.556 62.1349 142.557 62.6646 144.304 63.7006C145.225 66.0806 145.126 68.6296 144.276 68.6296C144.007 68.6296 143.865 68.6016 143.766 68.2896C142.647 64.8896 140.197 63.0896 137.449 63.0896C136.926 63.0398 136.398 63.1057 135.903 63.2827C135.408 63.4597 134.958 63.7435 134.585 64.1138C134.212 64.4842 133.925 64.9322 133.744 65.4259C133.564 65.9196 133.494 66.447 133.54 66.9706C133.54 69.7896 135.778 70.9086 138.568 71.8996C141.698 73.0186 146.117 74.2086 146.117 78.3586C146.117 82.5086 142.066 84.1656 137.859 84.1656C135.704 84.2304 133.577 83.665 131.738 82.5386V82.5386Z" fill="#353A3A"/>
<path d="M90.4789 15.0762C75.0404 15.0735 59.9835 19.8743 47.3959 28.8129C34.8082 37.7516 25.3136 50.3852 20.2283 64.9622C15.143 79.5391 14.719 95.3372 19.0152 110.166C23.3114 124.995 32.1148 138.119 44.2049 147.72L45.0269 146.53C33.1448 137.079 24.505 124.159 20.3103 109.567C16.1156 94.9758 16.5748 79.4395 21.6239 65.1212C26.6731 50.803 36.0609 38.4153 48.4805 29.6826C60.9001 20.9499 75.7335 16.3069 90.9156 16.3998C106.098 16.4927 120.873 21.317 133.185 30.2011C145.497 39.0851 154.732 51.5868 159.606 65.9658C164.479 80.3448 164.748 95.8855 160.375 110.425C156.002 124.964 147.205 137.777 135.208 147.082L136.157 148.173C148.391 138.655 157.346 125.554 161.771 110.698C166.196 95.8432 165.87 79.9767 160.839 65.3158C155.807 50.6549 146.322 37.932 133.707 28.9247C121.092 19.9174 105.979 15.0758 90.4789 15.0762V15.0762Z" fill="url(#paint7_linear_1166_130)"/>
</g>
<g clip-path="url(#clip1_1166_130)">
<path d="M326 179C375.706 179 416 138.929 416 89.5C416 40.0705 375.706 0 326 0C276.294 0 236 40.0705 236 89.5C236 138.929 276.294 179 326 179Z" fill="white"/>
<path d="M292.694 100.676C292.694 101.454 291.494 102.77 290.711 104.086C290.47 104.505 290.291 104.743 290.291 104.986C290.291 105.106 290.349 105.224 290.469 105.225C294.369 100.863 297.728 99.733 298.744 99.734C299.703 99.734 300.898 100.698 300.895 102.552C300.886 105.906 296.318 114.459 289.495 114.445C288.238 114.445 287.461 113.545 287.22 113.545C286.084 113.545 282.768 123.537 282.76 127.968C282.76 129.224 283.06 129.644 283.054 130.363C282.993 130.764 282.801 131.133 282.508 131.414C282.215 131.695 281.838 131.871 281.435 131.915C280.716 131.915 279.998 131.373 280.002 129.936C280.013 124.787 282.785 116.529 284.231 112.521C285.495 108.93 287.783 103.785 288.505 102.35C289.286 100.914 290.067 99.718 291.084 99.72C291.679 99.711 292.697 99.954 292.694 100.676ZM289.736 111.987C294.705 111.997 298.136 104.939 298.136 103.381C298.137 103.265 298.114 103.151 298.069 103.044C298.023 102.938 297.956 102.842 297.871 102.763C297.786 102.684 297.686 102.624 297.577 102.586C297.467 102.548 297.351 102.533 297.236 102.543C295.081 102.537 288.96 108.093 287.875 111.025C288.085 111.323 288.364 111.565 288.688 111.732C289.012 111.899 289.372 111.986 289.736 111.984V111.987Z" fill="url(#paint8_linear_1166_130)"/>
<path d="M315.378 104.675C316.099 103.775 316.578 103.175 317.238 103.181C317.35 103.174 317.462 103.19 317.568 103.23C317.673 103.27 317.768 103.331 317.847 103.411C317.926 103.491 317.987 103.587 318.026 103.692C318.065 103.797 318.081 103.91 318.073 104.022C318.073 104.561 317.832 104.922 317.112 105.755C314.289 109.162 309.069 114.421 305.655 114.414C304.507 114.394 303.412 113.923 302.608 113.104C301.803 112.284 301.353 111.181 301.355 110.032C301.366 104.943 305.278 95.732 308.705 89.868C312.312 83.708 315.013 80.661 318.366 80.668C318.982 80.737 319.554 81.0217 319.981 81.4717C320.407 81.9217 320.661 82.508 320.697 83.127C320.697 84.865 319.728 88.515 315.404 94.015C312.71 97.4176 309.56 100.433 306.043 102.976C304.967 104.954 304.311 107.133 304.113 109.376C304.113 111.112 304.764 112.193 306.082 112.196C308.655 112.205 313.217 107.543 315.378 104.675V104.675ZM310.856 90.652C307.671 96.213 306.947 98.728 306.765 99.685C307.546 99.327 310.546 96.699 313.788 92.334C317.33 87.492 318.053 85.697 318.056 84.258C318.056 83.658 317.756 83.42 317.156 83.418C316.383 83.419 313.924 85.092 310.856 90.652V90.652Z" fill="url(#paint9_linear_1166_130)"/>
<path d="M327.723 100.091C328.681 100.091 329.278 100.633 329.277 101.351C329.277 102.129 327.715 104.162 326.45 106.551C325.822 107.586 325.45 108.756 325.365 109.964C325.365 110.741 325.602 111.401 326.14 111.401C328.297 111.407 331.898 107.582 334.119 104.712C334.782 103.812 335.319 103.212 335.919 103.218C336.032 103.205 336.147 103.218 336.255 103.256C336.362 103.294 336.46 103.356 336.54 103.437C336.62 103.518 336.681 103.616 336.718 103.723C336.755 103.831 336.768 103.946 336.754 104.059C336.754 104.598 336.513 104.959 335.854 105.794C332.97 109.2 328.29 113.801 325.295 113.794C324.92 113.814 324.545 113.755 324.194 113.62C323.843 113.485 323.525 113.278 323.26 113.011C322.995 112.745 322.789 112.426 322.656 112.075C322.523 111.724 322.465 111.348 322.487 110.973C322.487 110.314 322.611 109.473 322.612 108.937C322.612 108.578 322.612 108.398 322.492 108.398C322.133 108.398 321.173 109.533 319.853 110.727C317.032 113.176 315.174 114.369 313.796 114.366C313.274 114.242 312.811 113.942 312.484 113.515C312.158 113.089 311.989 112.563 312.006 112.027C312.019 105.92 318.559 100.004 323.47 99.9561C324.607 99.9561 325.682 101.339 325.922 101.339C326.403 101.345 326.706 100.088 327.723 100.091V100.091ZM314.765 110.781C314.761 110.877 314.777 110.972 314.811 111.061C314.846 111.15 314.899 111.231 314.966 111.299C315.034 111.367 315.115 111.42 315.204 111.455C315.293 111.49 315.388 111.506 315.484 111.502C316.5 111.502 324.299 104.752 324.302 103.734C324.302 103.434 323.284 103.613 323.286 102.954C323.297 102.862 323.288 102.769 323.26 102.681C323.232 102.592 323.185 102.511 323.122 102.443C323.06 102.375 322.983 102.321 322.898 102.284C322.813 102.248 322.721 102.231 322.628 102.234C320.054 102.229 314.771 107.851 314.765 110.781V110.781Z" fill="url(#paint10_linear_1166_130)"/>
<path d="M355.793 104.762C356.514 103.862 356.993 103.262 357.655 103.268C357.767 103.261 357.879 103.278 357.984 103.317C358.089 103.357 358.184 103.419 358.263 103.499C358.342 103.578 358.404 103.674 358.443 103.779C358.482 103.884 358.498 103.997 358.49 104.109C358.49 104.648 358.249 105.009 357.529 105.844C354.705 109.251 350.684 113.853 347.929 113.844C344.816 113.837 344.464 110.604 344.469 108.028C344.469 106.828 344.892 105.394 344.897 103.958C344.897 103.418 344.779 102.999 344.18 102.997C342.325 102.997 336.801 109.148 335.36 111.061C334.16 112.736 333.853 114.831 333.015 114.83C332.115 114.83 331.222 114.586 331.223 113.63C331.223 112.73 333.695 105.612 334.781 102.139C335.564 99.5668 335.866 98.6088 337.481 98.6138C337.73 98.6282 337.966 98.7339 338.142 98.9108C338.318 99.0877 338.423 99.3234 338.437 99.5728C338.437 101.19 336.327 105.973 336.326 106.695C336.323 106.727 336.327 106.76 336.337 106.79C336.348 106.821 336.366 106.848 336.389 106.871C336.411 106.894 336.439 106.912 336.47 106.923C336.5 106.934 336.533 106.938 336.565 106.935C336.745 106.935 342.33 100.001 345.502 100.008C345.79 100.009 346.075 100.068 346.34 100.18C346.605 100.293 346.845 100.458 347.045 100.665C347.246 100.872 347.403 101.117 347.507 101.386C347.611 101.654 347.661 101.941 347.653 102.229C347.653 103.429 347.285 106.419 347.281 107.975C347.281 110.012 347.274 111.449 348.711 111.452C350.211 111.456 353.632 107.631 355.793 104.762V104.762Z" fill="url(#paint11_linear_1166_130)"/>
<path d="M358.624 96.1441C359.249 96.1212 359.87 96.0426 360.481 95.9091C361.781 93.415 363.225 90.9989 364.807 88.6731C365.829 87.2381 366.489 86.6401 367.267 86.6421C368.045 86.6441 368.524 87.0041 368.523 87.7231C368.522 88.4421 368.4 88.9231 367.26 89.8171C366.239 90.6541 365.939 91.4911 363.896 94.8991C365.138 94.5038 366.428 94.285 367.731 94.2491C369.831 94.2491 370.903 94.9751 370.9 96.1721C370.9 97.2501 369.817 98.5061 369.038 98.5041C368.499 98.5041 368.379 98.3231 368.381 97.9641C368.383 97.6051 368.502 97.3641 368.502 97.0641C368.502 96.5851 367.725 96.4641 366.826 96.4641C365.242 96.5721 363.685 96.9326 362.214 97.5321C358.967 103.332 355.657 110.571 355.65 113.686C355.65 114.464 356.009 114.765 356.008 115.304C355.994 115.628 355.854 115.933 355.619 116.156C355.384 116.379 355.072 116.502 354.748 116.499C353.848 116.499 353.248 115.599 353.257 114.099C353.264 110.625 356.157 104.105 359.037 98.4231C358.62 98.4727 358.2 98.4918 357.78 98.4801C355.985 98.4801 355.267 98.0551 355.268 97.2171C355.269 97.0154 355.31 96.8159 355.389 96.6305C355.469 96.4451 355.585 96.2777 355.731 96.1382C355.877 95.9987 356.049 95.8901 356.238 95.8188C356.426 95.7474 356.627 95.7149 356.829 95.7231C357.724 95.7221 357.903 96.1431 358.624 96.1441Z" fill="url(#paint12_linear_1166_130)"/>
<path d="M361.715 105.554C361.722 102.439 366.278 99.5741 368.915 99.5801C369.508 99.589 370.078 99.8132 370.518 100.211C370.958 100.609 371.238 101.153 371.307 101.742C371.307 102.999 370.522 105.093 369.324 105.091C368.664 105.091 368.065 104.729 368.067 104.07C368.067 103.051 368.967 102.87 368.967 102.635C368.936 102.419 368.827 102.221 368.662 102.077C368.497 101.934 368.286 101.855 368.067 101.854C367.229 101.854 364.411 103.463 364.408 105.2C364.408 106.878 368.715 106.647 368.708 110.48C368.708 112.456 366.965 114.607 363.491 114.6C361.391 114.6 359.782 113.095 359.791 111.658C359.769 111.285 359.895 110.919 360.142 110.639C360.389 110.359 360.737 110.188 361.11 110.164C361.24 110.149 361.373 110.16 361.499 110.197C361.625 110.235 361.741 110.298 361.842 110.382C361.943 110.466 362.025 110.57 362.085 110.687C362.144 110.805 362.178 110.933 362.186 111.064C362.161 111.288 362.187 111.514 362.264 111.726C362.34 111.938 362.463 112.129 362.625 112.286C362.787 112.442 362.982 112.56 363.196 112.629C363.41 112.698 363.637 112.717 363.86 112.685C364.145 112.684 364.427 112.625 364.688 112.512C364.95 112.4 365.186 112.235 365.382 112.028C365.579 111.822 365.731 111.577 365.83 111.31C365.93 111.043 365.974 110.759 365.96 110.474C365.961 108.137 361.709 108.247 361.715 105.554V105.554Z" fill="url(#paint13_linear_1166_130)"/>
<path d="M289.528 63.6602V64.2422C288.228 64.5162 287.542 64.6872 287.542 65.9182V84.9072H286.516L272.799 66.5002V82.6502C272.799 83.8832 273.415 84.0502 274.682 84.3262V84.9082H269.755V84.3262C271.088 84.0542 271.738 83.8832 271.738 82.6502V65.9153C271.738 64.6833 271.088 64.5152 269.755 64.2392V63.6572H273.963L286.485 80.5252V65.9153C286.485 64.6833 285.835 64.5152 284.569 64.2392V63.6572L289.528 63.6602Z" fill="#353A3A"/>
<path d="M313.064 84.2934V84.9074H305.777V84.3254C307.932 83.9504 307.864 83.4364 307.317 82.1034L301.095 67.4254C300.82 66.8434 300.649 66.8434 300.409 67.4934L296.476 76.6934C296.376 77.1384 296.647 77.3434 297.058 77.3434H304.414C304.893 77.3434 305.167 77.0694 304.926 76.4884L306.226 79.5334C306.069 79.1362 305.788 78.8011 305.423 78.5787C305.059 78.3564 304.632 78.259 304.207 78.3014H297.325C296.93 78.2569 296.531 78.3307 296.178 78.5133C295.825 78.696 295.534 78.9793 295.342 79.3274L294.242 81.9274C293.626 83.4274 294.449 84.0484 296.363 84.3204V84.9024H290.175V84.3204C290.837 84.2557 291.466 84.0021 291.988 83.5897C292.509 83.1772 292.901 82.6234 293.117 81.9944L299.858 66.0844C300.262 65.3369 300.485 64.5048 300.508 63.6554L302.321 63.4844L309.921 81.1054C310.91 83.5054 311.321 84.0864 313.064 84.2934V84.2934Z" fill="#353A3A"/>
<path d="M316.897 84.3256C318.915 84.0536 319.566 83.8826 319.566 82.6496V66.1936C319.566 65.1996 319.395 64.6526 316.691 64.6526C314.298 64.6526 313.475 65.3026 312.551 67.9046H311.87L312.383 63.5586L314.333 63.6586H327.506L329.456 63.5586L330.003 67.9046H329.32C328.361 65.3046 327.574 64.6526 325.179 64.6526C322.479 64.6526 322.305 65.1996 322.305 66.1936V82.6496C322.305 83.8826 322.955 84.0496 324.973 84.3256V84.9076H316.899L316.897 84.3256Z" fill="#353A3A"/>
<path d="M331.88 84.3262C333.214 84.0542 333.864 83.8832 333.864 82.6502V65.9153C333.864 64.6833 333.214 64.5152 331.88 64.2392V63.6572H338.587V64.2392C337.251 64.5132 336.601 64.6843 336.601 65.9153V82.6462C336.601 83.8792 337.251 84.0462 338.587 84.3222V84.9042H331.88V84.3262Z" fill="#353A3A"/>
<path d="M343.478 67.4582C342.486 65.0652 342.041 64.4812 340.296 64.2762V63.6602H347.619V64.2422C345.464 64.6182 345.496 65.1322 346.044 66.4662L352.272 81.1441C352.58 81.7261 352.751 81.7261 352.99 81.0761L359.114 66.6371C359.731 65.1321 358.909 64.5162 356.993 64.2422V63.6602H363.185V64.2422C362.523 64.307 361.894 64.5608 361.373 64.9731C360.851 65.3855 360.459 65.9392 360.243 66.5681L353.502 82.4781C353.115 83.2321 352.893 84.0604 352.852 84.9071H350.937L343.478 67.4582Z" fill="#353A3A"/>
<path d="M364.899 84.3262C366.233 84.0542 366.883 83.8832 366.883 82.6502V65.9153C366.883 64.6833 366.233 64.5152 364.899 64.2392V63.6572H380.159C380.467 63.6572 380.672 63.7572 380.706 64.1032C380.852 65.312 381.069 66.5111 381.356 67.6942H380.74C380.475 66.7516 379.888 65.9313 379.082 65.3753C378.276 64.8193 377.301 64.5624 376.325 64.6492H371.699C370.33 64.6492 369.612 64.8543 369.612 66.0493V72.2092C369.612 73.4092 370.33 73.5772 371.699 73.5772H375.36C377.379 73.5772 377.825 72.7222 378.097 71.2162H378.576V77.0322H378.099C377.827 75.5272 377.381 74.6032 375.362 74.6032H371.699C370.33 74.6032 369.612 74.7743 369.612 75.9713V82.5152C369.612 83.6442 370.296 83.9522 373.035 83.8842L376.968 83.8482C379.535 83.8142 380.22 83.0272 380.733 82.1732L381.554 80.8732H382.17C381.59 81.9772 381.241 83.1878 381.144 84.4312C381.141 84.4992 381.124 84.5657 381.094 84.6269C381.064 84.6881 381.023 84.7427 380.971 84.7874C380.92 84.8321 380.86 84.866 380.796 84.8871C380.731 84.9083 380.663 84.9161 380.595 84.9102H364.899V84.3262Z" fill="#353A3A"/>
<path d="M260.862 131.702C252.941 119.884 248.396 106.128 247.717 91.9173C247.038 77.7064 250.251 63.5798 257.01 51.0607C263.769 38.5417 273.817 28.105 286.071 20.8763C298.325 13.6475 312.319 9.90086 326.546 10.0403C340.772 10.1797 354.691 14.2 366.8 21.6675C378.91 29.135 388.752 39.7666 395.264 52.4157C401.776 65.0649 404.712 79.2518 403.755 93.4466C402.797 107.642 397.984 121.306 389.832 132.966L391.985 134.915C400.479 122.856 405.519 108.705 406.559 93.9916C407.599 79.2777 404.601 64.5592 397.887 51.4248C391.174 38.2903 381.001 27.2389 368.466 19.4635C355.931 11.688 341.511 7.48386 326.761 7.3048C312.012 7.12574 297.494 10.9786 284.774 18.4475C272.054 25.9163 261.615 36.7175 254.585 49.6851C247.555 62.6527 244.2 77.2941 244.883 92.0289C245.566 106.764 250.26 121.032 258.459 133.294L260.862 131.702Z" fill="url(#paint14_linear_1166_130)"/>
<path d="M264.77 129.111C257.337 118.025 253.066 105.123 252.414 91.7914C251.762 78.4599 254.755 65.2028 261.071 53.4442C267.387 41.6857 276.787 31.8702 288.261 25.0521C299.736 18.2341 312.851 14.6712 326.199 14.7463C339.546 14.8214 352.62 18.5316 364.017 25.4784C375.415 32.4251 384.704 42.3458 390.887 54.1747C397.07 66.0035 399.913 79.2935 399.112 92.6168C398.31 105.94 393.893 118.793 386.336 129.795L387.422 130.78C395.147 119.578 399.673 106.483 400.514 92.9015C401.354 79.3202 398.478 65.7666 392.194 53.6973C385.91 41.6281 376.455 31.4995 364.847 24.4002C353.238 17.301 339.915 13.4994 326.308 13.4042C312.701 13.3089 299.325 16.9236 287.618 23.8597C275.912 30.7957 266.316 40.791 259.864 52.7711C253.411 64.7512 250.346 78.2632 250.996 91.8549C251.647 105.447 255.989 118.604 263.556 129.913L264.77 129.111Z" fill="url(#paint15_linear_1166_130)"/>
<path d="M264.449 137.244L271.792 131.92C272.461 131.435 272.632 131.097 271.925 130.281L272.213 130.07L273.818 131.521C273.893 131.566 273.955 131.63 273.997 131.707C274.039 131.783 274.059 131.87 274.056 131.957C274.053 132.045 274.027 132.129 273.98 132.203C273.932 132.277 273.866 132.336 273.788 132.375L265.382 138.475C264.867 138.847 264.846 139.266 265.6 139.862L265.282 140.092C264.802 139.913 264.386 139.594 264.087 139.177C263.588 138.485 263.569 137.884 264.449 137.244V137.244Z" fill="#1B1C1C"/>
<path d="M270.381 140.386C270.802 139.974 271.303 139.651 271.853 139.438C272.402 139.224 272.989 139.125 273.579 139.146C274.168 139.166 274.747 139.307 275.28 139.558C275.813 139.809 276.29 140.166 276.681 140.607C277.104 141.008 277.441 141.491 277.671 142.027C277.9 142.563 278.017 143.14 278.015 143.723C278.013 144.305 277.891 144.882 277.657 145.416C277.424 145.95 277.084 146.43 276.657 146.827C276.237 147.242 275.736 147.566 275.186 147.781C274.636 147.996 274.048 148.097 273.458 148.077C272.868 148.058 272.288 147.919 271.753 147.668C271.219 147.417 270.741 147.061 270.348 146.619C269.928 146.216 269.594 145.73 269.367 145.193C269.14 144.656 269.024 144.079 269.027 143.496C269.03 142.913 269.152 142.337 269.385 141.802C269.618 141.268 269.957 140.786 270.381 140.386V140.386ZM275.074 146.102C276.816 144.426 277.326 142.011 275.992 140.624C275.033 139.624 273.554 139.576 271.949 141.124C270.206 142.8 269.707 145.224 271.03 146.602C272.002 147.614 273.481 147.634 275.073 146.102H275.074Z" fill="#1B1C1C"/>
<path d="M279.531 149.414C279.894 148.926 280.352 148.517 280.878 148.213C281.404 147.908 281.986 147.714 282.589 147.641C283.193 147.569 283.805 147.62 284.388 147.792C284.971 147.964 285.512 148.253 285.98 148.641C287.58 149.81 287.826 151.469 287.219 152.3C287.158 152.395 287.077 152.477 286.982 152.54C286.887 152.603 286.78 152.645 286.667 152.664C286.555 152.683 286.44 152.678 286.33 152.65C286.22 152.621 286.116 152.57 286.027 152.5C285.929 152.442 285.845 152.364 285.781 152.271C285.716 152.178 285.672 152.073 285.651 151.961C285.631 151.85 285.635 151.735 285.662 151.625C285.69 151.516 285.741 151.413 285.812 151.325C285.967 151.129 286.078 150.903 286.138 150.662C286.199 150.42 286.207 150.169 286.163 149.924C286.118 149.679 286.022 149.446 285.88 149.241C285.739 149.036 285.555 148.864 285.342 148.736C284.033 147.784 282.385 148.18 281.227 149.77C280.894 150.166 280.647 150.627 280.502 151.124C280.357 151.621 280.317 152.143 280.385 152.656C280.452 153.169 280.626 153.663 280.894 154.105C281.163 154.548 281.52 154.93 281.944 155.227C282.295 155.508 282.707 155.703 283.146 155.798C283.586 155.892 284.042 155.883 284.477 155.772L284.582 156.151C283.935 156.397 283.235 156.473 282.549 156.372C281.864 156.27 281.216 155.994 280.668 155.571C280.179 155.249 279.76 154.832 279.437 154.345C279.113 153.858 278.892 153.31 278.785 152.735C278.679 152.159 278.691 151.569 278.819 150.998C278.947 150.427 279.189 149.888 279.531 149.414V149.414Z" fill="#1B1C1C"/>
<path d="M288.254 158.134C288.901 156.842 290.445 156.378 294.539 157.879C294.788 157.979 294.991 157.96 295.161 157.624L295.338 157.272C295.504 157.022 295.612 156.739 295.655 156.442C295.697 156.145 295.672 155.842 295.582 155.556C295.492 155.27 295.339 155.007 295.134 154.788C294.93 154.569 294.678 154.398 294.399 154.288C294.239 154.17 294.055 154.09 293.859 154.054C293.664 154.019 293.462 154.029 293.271 154.083C293.08 154.137 292.904 154.234 292.756 154.368C292.608 154.501 292.493 154.666 292.419 154.85C292.125 155.436 291.688 155.576 291.219 155.343C291.121 155.3 291.033 155.236 290.963 155.155C290.892 155.074 290.839 154.979 290.809 154.876C290.779 154.773 290.771 154.665 290.787 154.559C290.803 154.452 290.841 154.351 290.9 154.261C291.48 153.103 293.58 153.336 295.232 154.161C297.213 155.15 297.491 156.399 296.561 158.261L294.684 162.016C294.392 162.602 294.573 162.967 295.207 163.116L295.049 163.434C294.629 163.47 294.208 163.389 293.83 163.202C293.662 163.137 293.51 163.036 293.386 162.904C293.263 162.772 293.17 162.615 293.116 162.442C293.062 162.27 293.047 162.088 293.073 161.909C293.099 161.73 293.165 161.56 293.266 161.41C293.34 161.259 293.202 161.191 293.006 161.282C292.453 161.497 291.86 161.591 291.267 161.559C290.675 161.526 290.096 161.368 289.569 161.094C288.421 160.522 287.605 159.443 288.254 158.134V158.134ZM293.928 160.088L294.428 159.083C294.62 158.697 294.66 158.403 294.028 158.168C291.347 157.204 290.35 157.692 289.954 158.48C289.848 158.684 289.787 158.908 289.773 159.137C289.76 159.367 289.795 159.596 289.877 159.811C289.958 160.026 290.084 160.221 290.247 160.384C290.409 160.547 290.604 160.673 290.818 160.755C291.327 161.053 291.928 161.15 292.505 161.027C293.081 160.903 293.59 160.569 293.932 160.089L293.928 160.088Z" fill="#1B1C1C"/>
<path d="M299.595 163.945L302.595 155.388C302.869 154.61 302.816 154.233 301.768 153.965L301.885 153.627L304.033 153.906C304.464 153.957 304.633 154.217 304.493 154.623L301.055 164.423C300.845 165.023 301.066 165.381 302.026 165.439L301.895 165.81C301.399 165.934 300.877 165.909 300.395 165.739C299.596 165.453 299.234 164.97 299.595 163.945V163.945Z" fill="#1B1C1C"/>
<path d="M306.345 166.04L308.526 157.247C308.726 156.447 308.639 156.078 307.571 155.908L307.655 155.563L309.818 155.637C310.251 155.647 310.45 155.889 310.345 156.307L307.845 166.374C307.691 166.991 307.945 167.326 308.904 167.293L308.81 167.674C308.328 167.845 307.806 167.87 307.31 167.745C306.489 167.543 306.084 167.095 306.345 166.04V166.04Z" fill="#1B1C1C"/>
<path d="M312.284 171.388C312.299 171.263 312.338 171.142 312.401 171.034C312.464 170.925 312.549 170.83 312.65 170.755C312.751 170.68 312.866 170.626 312.989 170.598C313.111 170.569 313.238 170.566 313.362 170.588C314.454 170.709 313.649 172.015 314.433 172.1C314.893 172.151 315.372 171.507 315.739 170.814C315.936 170.448 316.055 170.045 316.088 169.63C316.121 169.215 316.067 168.798 315.93 168.405L314.244 162.657C313.882 161.393 313.697 161.146 312.907 160.757L312.947 160.388L316.755 160.811L316.715 161.182C315.629 161.362 315.528 161.582 315.908 162.844L317.261 167.423C317.351 167.66 317.523 167.678 317.661 167.467L318.908 165.139C320.539 162.139 320.219 161.873 319.143 161.453L319.183 161.081L322.57 161.459L322.53 161.83C322.072 161.844 321.629 161.997 321.259 162.269C320.89 162.541 320.612 162.919 320.462 163.352L316.393 170.718C315.693 171.977 315.109 172.855 313.693 172.697C312.733 172.588 312.213 172.042 312.284 171.388V171.388Z" fill="#1B1C1C"/>
<path d="M332.868 167.051C332.921 167.44 333.304 167.54 333.829 167.544L336.952 167.644C338.785 167.698 339.933 167.979 340.085 169.111C340.327 170.893 337.93 172.411 335.525 172.735C333.465 173.014 331.783 172.373 331.589 170.945C331.358 169.237 333.533 168.79 332.869 168.768C332.551 168.769 332.243 168.655 332.001 168.448C331.759 168.242 331.598 167.955 331.549 167.64C331.459 166.974 331.935 166.474 332.922 166.152C332.463 165.988 332.06 165.697 331.76 165.313C331.46 164.928 331.275 164.467 331.227 163.981C330.995 162.273 332.127 160.909 334.345 160.61C334.917 160.489 335.51 160.506 336.075 160.659C336.64 160.812 337.16 161.097 337.592 161.491C337.532 160.761 337.764 160.184 338.51 160.083C339.043 160.012 339.41 160.245 339.461 160.653C339.475 160.764 339.46 160.875 339.42 160.978C339.379 161.082 339.314 161.173 339.229 161.245C339.144 161.316 339.043 161.365 338.934 161.388C338.826 161.41 338.713 161.405 338.607 161.373C338.107 161.273 338.071 161.58 338.261 162.973C338.501 164.735 337.337 166.045 335.261 166.329C334.537 166.429 334.095 166.336 333.543 166.41C333.04 166.479 332.825 166.736 332.868 167.051V167.051ZM332.785 163.3C333.014 164.989 334.037 166.08 335.374 165.9C336.596 165.735 336.832 164.624 336.701 163.659C336.471 161.971 335.448 160.881 334.094 161.059C332.873 161.228 332.655 162.337 332.785 163.3V163.3ZM333.067 170.52C333.224 171.67 334.467 172.372 336.259 172.128C337.67 171.935 338.859 171.076 338.677 169.759C338.596 169.165 338.044 168.959 336.911 168.921L334.884 168.875C333.597 168.841 332.947 169.628 333.067 170.52V170.52Z" fill="#1B1C1C"/>
<path d="M344.332 167.185C345.164 166.813 345.42 166.521 345.217 165.859L343.68 160.784C343.441 159.997 343.171 159.706 342.172 160.127L342.072 159.788L343.964 158.723C344.343 158.511 344.635 158.618 344.772 159.065C344.977 159.746 345.155 159.865 345.338 159.54C345.54 159.101 345.828 158.706 346.186 158.38C346.543 158.053 346.962 157.802 347.418 157.64C347.615 157.541 347.832 157.486 348.053 157.48C348.274 157.474 348.493 157.516 348.696 157.603C348.899 157.691 349.08 157.822 349.227 157.987C349.374 158.152 349.483 158.347 349.546 158.559C349.587 158.672 349.604 158.791 349.597 158.911C349.589 159.03 349.557 159.147 349.503 159.253C349.449 159.36 349.373 159.454 349.28 159.53C349.188 159.606 349.081 159.662 348.966 159.695C348.877 159.734 348.781 159.755 348.684 159.756C348.587 159.758 348.491 159.74 348.401 159.703C348.311 159.667 348.229 159.612 348.16 159.544C348.092 159.475 348.038 159.393 348.001 159.303C347.966 159.183 347.906 159.071 347.825 158.975C347.743 158.879 347.643 158.802 347.53 158.747C347.416 158.693 347.293 158.663 347.167 158.66C347.042 158.656 346.917 158.679 346.801 158.727C345.752 159.045 345.169 160.378 345.679 162.061L346.694 165.414C346.894 166.078 347.268 166.18 348.222 166.007L348.332 166.368L344.443 167.545L344.332 167.185Z" fill="#1B1C1C"/>
<path d="M353.474 160.159C353.21 159.633 353.056 159.058 353.021 158.47C352.986 157.883 353.07 157.294 353.27 156.74C353.469 156.185 353.778 155.677 354.18 155.247C354.581 154.816 355.065 154.47 355.604 154.232C356.115 153.952 356.677 153.779 357.258 153.724C357.838 153.669 358.423 153.734 358.977 153.914C359.531 154.093 360.043 154.385 360.48 154.77C360.918 155.155 361.271 155.625 361.52 156.152C361.786 156.679 361.943 157.255 361.979 157.844C362.016 158.433 361.933 159.024 361.734 159.58C361.536 160.136 361.226 160.645 360.824 161.078C360.423 161.51 359.937 161.856 359.397 162.095C358.884 162.373 358.32 162.543 357.74 162.596C357.159 162.648 356.574 162.582 356.019 162.401C355.465 162.22 354.954 161.927 354.516 161.542C354.078 161.157 353.724 160.686 353.474 160.159V160.159ZM360.348 157.436C359.283 155.265 357.139 154.036 355.411 154.889C354.166 155.499 353.672 156.889 354.653 158.889C355.718 161.057 357.879 162.272 359.59 161.432C360.849 160.817 361.321 159.42 360.349 157.436H360.348Z" fill="#1B1C1C"/>
<path d="M364.154 152.242C363.029 151.573 362.709 151.542 361.872 151.807L361.642 151.507L364.642 149.185L364.871 149.485C364.218 150.37 364.311 150.585 365.448 151.241L369.438 153.6C369.727 153.754 369.88 153.637 369.789 153.328L369.16 151.351C369.055 150.897 368.861 150.467 368.589 150.088C368.317 149.709 367.972 149.388 367.575 149.143C367.292 148.942 366.962 148.816 366.617 148.777C366.272 148.738 365.923 148.787 365.602 148.919L365.372 148.619L368.351 146.31L368.582 146.61C367.943 147.482 368.036 147.696 369.161 148.365L373.161 150.714C373.453 150.868 373.603 150.75 373.513 150.442L372.738 148.056C371.71 144.776 371.409 144.796 370.329 145.256L370.099 144.956L372.806 142.856L373.036 143.156C372.714 143.484 372.5 143.903 372.424 144.356C372.348 144.809 372.413 145.275 372.611 145.689L374.461 152.266L373.761 152.809L369.329 150.223L370.729 155.154L370.046 155.684L364.154 152.242Z" fill="#1B1C1C"/>
<path d="M384.74 139.963L381.674 137.41C380.565 136.485 379.274 136.364 378.352 137.471C378.15 137.72 378.001 138.008 377.913 138.316C377.826 138.625 377.802 138.947 377.843 139.265C377.884 139.583 377.989 139.89 378.152 140.166C378.315 140.442 378.533 140.682 378.791 140.871L381.699 143.293C382.232 143.738 382.599 143.618 383.277 142.981L383.565 143.22L380.991 146.311L380.702 146.073C381.195 145.305 381.247 144.921 380.713 144.479L376.64 141.079C376.007 140.552 375.622 140.456 375.019 141.356L374.744 141.128L375.744 139.201C375.944 138.816 376.244 138.745 376.605 139.044C377.152 139.499 377.452 139.523 377.423 139.144C377.329 138.621 377.352 138.084 377.488 137.57C377.625 137.057 377.873 136.58 378.214 136.172C378.454 135.858 378.76 135.599 379.11 135.415C379.46 135.231 379.846 135.126 380.241 135.107C380.636 135.088 381.031 135.156 381.397 135.305C381.763 135.455 382.092 135.682 382.361 135.972L385.6 138.672C386.1 139.093 386.5 138.998 386.79 138.414L387.064 138.642C386.995 139.07 386.812 139.471 386.535 139.804C386.444 139.954 386.319 140.081 386.17 140.174C386.021 140.266 385.853 140.323 385.678 140.338C385.503 140.354 385.327 140.328 385.164 140.263C385.001 140.198 384.856 140.095 384.74 139.963V139.963Z" fill="#1B1C1C"/>
</g>
<g clip-path="url(#clip2_1166_130)">
<path d="M562 179C611.706 179 652 138.929 652 89.5C652 40.0705 611.706 0 562 0C512.294 0 472 40.0705 472 89.5C472 138.929 512.294 179 562 179Z" fill="white"/>
<path d="M561.384 7.88C576.998 7.8798 592.261 12.5096 605.243 21.184C618.226 29.8584 628.344 42.1878 634.32 56.613C640.295 71.0381 641.858 86.9112 638.812 102.225C635.766 117.539 628.247 131.605 617.207 142.646C606.166 153.686 592.1 161.205 576.786 164.251C561.472 167.297 545.599 165.734 531.174 159.759C516.749 153.783 504.42 143.665 495.745 130.682C487.071 117.7 482.441 102.437 482.441 86.823C482.465 65.8933 490.79 45.8277 505.589 31.0282C520.389 16.2287 540.454 7.90382 561.384 7.88M561.384 5C545.201 5.0002 529.381 9.79928 515.925 18.7904C502.469 27.7815 491.982 40.5608 485.789 55.5122C479.596 70.4637 477.976 86.9158 481.133 102.788C484.291 118.66 492.084 133.24 503.527 144.683C514.971 156.126 529.551 163.919 545.423 167.076C561.295 170.233 577.747 168.612 592.699 162.419C607.65 156.226 620.429 145.738 629.42 132.282C638.411 118.826 643.209 103.006 643.209 86.823C643.209 76.0777 641.093 65.4376 636.98 55.5102C632.868 45.5829 626.841 36.5627 619.243 28.9647C611.645 21.3667 602.624 15.3397 592.697 11.2278C582.77 7.11596 572.129 4.99974 561.384 5V5Z" fill="url(#paint16_linear_1166_130)"/>
<path d="M517.216 98.0107C517.216 98.7967 516.002 100.124 515.216 101.453C514.973 101.876 514.791 102.118 514.791 102.36C514.791 102.481 514.85 102.602 514.971 102.602C518.913 98.1947 522.303 97.0527 523.331 97.0557C524.3 97.0557 525.507 98.0267 525.504 99.9027C525.495 103.292 520.88 111.932 513.983 111.916C513.152 111.808 512.362 111.494 511.683 111.003C510.535 111.003 507.183 121.097 507.177 125.573C507.177 126.845 507.477 127.273 507.477 127.995C507.415 128.4 507.221 128.773 506.925 129.056C506.629 129.34 506.248 129.518 505.841 129.563C505.115 129.563 504.389 129.016 504.394 127.563C504.406 122.363 507.205 114.019 508.667 109.963C509.944 106.337 512.256 101.139 512.984 99.6887C513.773 98.2387 514.562 97.0307 515.589 97.0327C516.191 97.0397 517.219 97.2847 517.216 98.0107V98.0107ZM514.228 109.437C519.248 109.449 522.713 102.317 522.716 100.744C522.717 100.627 522.695 100.512 522.649 100.405C522.604 100.298 522.537 100.201 522.452 100.122C522.368 100.042 522.268 99.9802 522.158 99.941C522.049 99.9018 521.932 99.8857 521.816 99.8937C519.639 99.8937 513.455 105.503 512.359 108.464C512.57 108.764 512.85 109.009 513.175 109.178C513.5 109.347 513.861 109.436 514.228 109.437V109.437Z" fill="url(#paint17_linear_1166_130)"/>
<path d="M531.613 97.8598C531.613 98.5858 530.76 100.16 530.759 100.701C530.759 100.822 530.759 100.882 530.88 100.882C531.121 100.882 531.302 100.702 531.607 100.4C533.849 98.0448 535.607 96.7188 537.121 96.7218C537.407 96.7039 537.693 96.7462 537.961 96.8459C538.23 96.9456 538.474 97.1005 538.679 97.3006C538.883 97.5007 539.044 97.7415 539.15 98.0075C539.255 98.2735 539.304 98.5587 539.293 98.8448C539.293 100.719 538.681 102.473 537.169 102.468C536.867 102.458 536.581 102.333 536.367 102.119C536.154 101.906 536.03 101.619 536.021 101.317C536.126 100.764 536.269 100.218 536.449 99.6848C536.449 99.4428 536.269 99.2618 535.906 99.2598C535.058 99.2598 531.057 103.12 529.114 106.141C527.714 108.316 526.62 111.822 526.077 111.821C525.728 111.766 525.405 111.601 525.155 111.35C524.906 111.1 524.743 110.776 524.689 110.427C525.141 108.537 525.772 106.695 526.576 104.927C527.421 103.039 528.153 101.102 528.768 99.1268C529.194 97.6748 529.619 96.9498 530.468 96.9518C530.738 96.9331 531.005 97.0158 531.216 97.1838C531.428 97.3518 531.57 97.5929 531.613 97.8598V97.8598Z" fill="url(#paint18_linear_1166_130)"/>
<path d="M550.784 99.1109C550.784 99.5949 550.784 100.987 551.747 100.989C554.227 100.995 556.592 99.3059 557.196 99.3069C557.336 99.2999 557.476 99.3214 557.607 99.37C557.738 99.4186 557.858 99.4933 557.96 99.5898C558.061 99.6862 558.142 99.8022 558.198 99.9308C558.253 100.059 558.282 100.198 558.282 100.338C558.282 100.938 557.493 101.667 555.494 102.57C553.821 103.245 552.033 103.59 550.229 103.587C548.95 107.213 546.158 111.987 541.922 111.977C540.228 111.977 538.538 110.7 538.543 108.097C538.556 102.472 543.285 97.0969 547.519 97.1069C549.76 97.1139 550.785 98.2039 550.784 99.1109V99.1109ZM541.084 108.103C541.062 108.318 541.085 108.536 541.149 108.743C541.214 108.949 541.321 109.141 541.462 109.305C541.603 109.469 541.775 109.603 541.97 109.699C542.164 109.794 542.376 109.85 542.592 109.861C544.952 109.867 548.049 104.429 548.051 102.613C548.051 102.432 547.145 102.128 547.151 101.341C547.187 100.894 547.249 100.45 547.335 100.01C547.339 99.9853 547.337 99.9601 547.329 99.9364C547.322 99.9126 547.308 99.891 547.291 99.8732C547.273 99.8555 547.252 99.842 547.228 99.834C547.205 99.8259 547.18 99.8235 547.155 99.8269C544.552 99.8229 541.093 104.167 541.084 108.103V108.103Z" fill="url(#paint19_linear_1166_130)"/>
<path d="M584.288 102.148C585.017 101.248 585.502 100.639 586.167 100.64C586.28 100.632 586.394 100.649 586.5 100.689C586.606 100.729 586.703 100.792 586.783 100.872C586.863 100.953 586.925 101.05 586.964 101.156C587.003 101.263 587.019 101.377 587.011 101.49C587.011 102.034 586.768 102.396 586.04 103.241C584.161 105.656 579.123 111.817 575.919 111.81C574.284 111.81 573.259 110.655 573.263 108.597C573.269 106.117 574.61 101.824 574.61 101.397C574.61 100.97 574.492 100.611 574.01 100.609C572.074 100.609 567.099 107.068 566.186 109.424C565.578 110.815 565.092 111.724 564.547 111.724C564.175 111.669 563.83 111.499 563.559 111.238C563.289 110.977 563.107 110.638 563.039 110.269C563.039 109.543 565.777 102.652 565.781 100.838C565.789 100.709 565.769 100.58 565.723 100.459C565.677 100.339 565.606 100.229 565.515 100.137C565.424 100.046 565.315 99.9747 565.194 99.9284C565.074 99.8822 564.945 99.8618 564.816 99.8688C564.09 99.8688 560.939 102.218 558.816 105.239C557.751 106.832 556.817 108.51 556.024 110.255C555.477 111.401 555.413 112.43 554.506 112.428C554.168 112.401 553.851 112.251 553.617 112.005C553.383 111.759 553.249 111.435 553.239 111.096C553.239 110.248 555.978 103.056 557.868 97.2508C558.294 95.9218 558.961 95.2578 559.445 95.2578C560.171 95.2578 560.897 95.5038 560.894 96.4118C560.894 97.4398 559.128 101.49 558.885 102.337C560.767 99.7368 563.979 97.3268 565.612 97.3298C566.701 97.3298 568.512 97.9418 568.512 99.5148C568.442 100.735 568.278 101.948 568.022 103.144C570.022 100.365 573.296 98.0128 575.231 98.0168C575.794 98.031 576.331 98.2575 576.733 98.6509C577.136 99.0443 577.375 99.5754 577.403 100.138C577.403 101.41 575.76 105.7 575.754 108.06C575.754 108.907 575.933 109.392 576.654 109.394C578.646 109.401 582.105 105.047 584.288 102.148V102.148Z" fill="url(#paint20_linear_1166_130)"/>
<path d="M594.384 102.17C595.113 101.264 595.598 100.659 596.265 100.661C596.378 100.653 596.492 100.67 596.598 100.71C596.705 100.75 596.801 100.813 596.881 100.893C596.961 100.974 597.023 101.071 597.062 101.177C597.102 101.284 597.118 101.398 597.109 101.511C597.109 102.055 596.866 102.418 596.199 103.264C593.286 106.706 587.829 111.836 584.806 111.83C584.076 111.73 583.412 111.354 582.952 110.779C582.492 110.204 582.27 109.474 582.332 108.74C582.338 106.077 585.432 100.157 585.922 99.2499C586.59 98.1019 587.136 97.1339 587.922 97.1369C588.468 97.1369 589.313 97.5629 589.312 98.2289C589.311 98.8949 588.704 99.4989 588.157 100.405C586.821 102.699 584.999 106.932 584.996 108.262C584.981 108.414 584.998 108.568 585.046 108.713C585.094 108.859 585.171 108.993 585.273 109.107C585.375 109.221 585.5 109.312 585.639 109.376C585.778 109.439 585.929 109.473 586.082 109.475C587.835 109.477 592.203 105.07 594.384 102.17V102.17ZM595.625 88.0169C595.557 88.6133 595.284 89.1676 594.853 89.5857C594.422 90.0039 593.86 90.2601 593.262 90.3109C592.536 90.3109 592.237 89.0379 592.238 88.1909C592.284 87.6771 592.521 87.1992 592.903 86.8525C593.285 86.5058 593.783 86.3156 594.299 86.3199C594.904 86.3209 595.627 86.8069 595.626 88.0159L595.625 88.0169Z" fill="url(#paint21_linear_1166_130)"/>
<path d="M594.623 102.958C594.63 99.8128 599.233 96.9178 601.894 96.9238C602.493 96.9329 603.068 97.1592 603.513 97.5608C603.958 97.9624 604.241 98.5118 604.311 99.1068C604.311 100.377 603.517 102.493 602.311 102.49C601.644 102.49 601.039 102.124 601.041 101.459C601.041 100.431 601.951 100.251 601.953 100.009C601.921 99.7908 601.812 99.5915 601.646 99.4469C601.48 99.3023 601.267 99.2221 601.047 99.2208C600.2 99.2208 597.353 100.845 597.347 102.601C597.347 104.295 601.698 104.063 601.689 107.934C601.689 109.934 599.928 112.105 596.418 112.097C594.301 112.091 592.671 110.575 592.675 109.123C592.653 108.747 592.781 108.377 593.03 108.094C593.28 107.812 593.631 107.64 594.007 107.615C594.139 107.599 594.272 107.611 594.399 107.649C594.526 107.687 594.645 107.75 594.746 107.835C594.848 107.92 594.931 108.025 594.991 108.144C595.051 108.262 595.086 108.391 595.094 108.524C595.069 108.75 595.096 108.978 595.173 109.192C595.25 109.405 595.375 109.599 595.538 109.757C595.702 109.915 595.899 110.033 596.115 110.103C596.331 110.173 596.56 110.193 596.785 110.161C597.073 110.16 597.358 110.101 597.622 109.987C597.887 109.873 598.126 109.706 598.324 109.498C598.522 109.289 598.676 109.042 598.777 108.772C598.877 108.502 598.922 108.215 598.908 107.927C598.917 105.569 594.617 105.68 594.623 102.958V102.958Z" fill="url(#paint22_linear_1166_130)"/>
<path d="M612.758 107.897C613.729 107.174 614.158 106.569 614.82 106.571C614.933 106.563 615.047 106.58 615.153 106.62C615.259 106.66 615.356 106.723 615.436 106.804C615.516 106.884 615.578 106.981 615.617 107.087C615.656 107.194 615.672 107.308 615.664 107.421C615.664 107.965 615.3 108.387 614.451 109.051C612.632 110.438 610.571 112.067 607.789 112.059C606.78 111.997 605.826 111.579 605.097 110.88C604.367 110.181 603.909 109.245 603.804 108.24C603.804 107.64 603.624 107.454 603.625 106.849C603.658 106.539 603.771 106.243 603.951 105.989C604.132 105.735 604.374 105.532 604.656 105.399C607.149 99.657 611.209 97.367 614.293 97.375C614.892 97.3721 615.472 97.5851 615.927 97.975C616.382 98.3649 616.681 98.9056 616.769 99.498C616.762 102.583 611.491 106.081 607.739 106.919C606.65 107.16 606.588 107.519 606.587 108.127C606.577 108.368 606.618 108.608 606.705 108.832C606.792 109.057 606.925 109.261 607.095 109.431C607.265 109.602 607.468 109.736 607.692 109.825C607.916 109.913 608.156 109.954 608.397 109.946C610.091 109.948 611.664 108.741 612.758 107.897ZM607.382 105.041C609.498 104.986 614.282 101.609 614.287 100.341C614.287 99.857 614.046 99.741 613.563 99.735C611.688 99.727 608.291 103.592 607.382 105.041V105.041Z" fill="url(#paint23_linear_1166_130)"/>
<path d="M496.335 82.9361C498.235 82.7911 498.812 82.4751 498.812 81.4661V68.7662C498.812 67.4412 498.553 67.2391 497.602 67.3841L496.421 67.5842V67.1221L500.079 65.4221C500.741 65.1341 500.828 65.4511 500.828 65.8831V81.4681C500.828 82.4781 501.405 82.7932 503.306 82.9382V83.4281H496.335V82.9361Z" fill="#353A3A"/>
<path d="M504.6 74.3772C504.6 69.6822 506.789 65.0771 511.543 65.0771C516.326 65.0771 518.515 69.6872 518.515 74.3772C518.515 79.1022 516.326 83.7122 511.543 83.7122C506.79 83.7132 504.6 79.1042 504.6 74.3772ZM515.951 74.3772C515.951 68.6772 514.365 65.7061 511.543 65.7061C508.721 65.7061 507.135 68.6732 507.135 74.3772C507.135 80.0532 508.719 83.0772 511.543 83.0772C514.367 83.0772 515.952 80.0542 515.952 74.3772H515.951Z" fill="#353A3A"/>
<path d="M521.19 74.3772C521.19 69.6822 523.38 65.0771 528.133 65.0771C532.916 65.0771 535.106 69.6872 535.106 74.3772C535.106 79.1022 532.916 83.7122 528.133 83.7122C523.38 83.7132 521.19 79.1042 521.19 74.3772V74.3772ZM532.541 74.3772C532.541 68.6772 530.957 65.7061 528.133 65.7061C525.309 65.7061 523.726 68.6732 523.726 74.3772C523.726 80.0532 525.31 83.0772 528.133 83.0772C530.956 83.0772 532.541 80.0542 532.541 74.3772V74.3772Z" fill="#353A3A"/>
<path d="M551.436 65.535L539.884 83.425H537.839L550.256 66.11C548.181 67.753 545.992 67.032 544.089 66.427C544.531 67.0483 544.763 67.7939 544.753 68.556C544.721 69.7163 544.257 70.8228 543.453 71.6593C542.648 72.4958 541.56 73.002 540.402 73.079C539.999 73.0672 539.602 72.9729 539.237 72.8019C538.872 72.6309 538.546 72.3869 538.278 72.0849C538.011 71.7828 537.809 71.4292 537.683 71.0459C537.558 70.6625 537.513 70.2576 537.55 69.856C537.581 68.7002 538.04 67.5971 538.839 66.7612C539.638 65.9253 540.719 65.4162 541.872 65.333C546.136 65.333 547 67.696 550.658 65.533L551.436 65.535ZM542.936 68.906C542.936 67.406 542.56 65.967 541.264 65.967C539.91 65.967 539.364 67.639 539.364 69.511C539.364 71.011 539.738 72.449 541.035 72.449C542.39 72.449 542.939 70.777 542.939 68.906H542.936ZM552.586 79.219C552.549 80.3776 552.084 81.4813 551.28 82.3166C550.476 83.1519 549.391 83.6594 548.235 83.741C547.832 83.7292 547.435 83.6349 547.07 83.4637C546.704 83.2925 546.378 83.0482 546.11 82.7458C545.843 82.4434 545.641 82.0894 545.516 81.7057C545.391 81.322 545.346 80.9168 545.384 80.515C545.415 79.3596 545.874 78.2568 546.672 77.421C547.47 76.5852 548.551 76.0762 549.704 75.993C550.11 76.0009 550.51 76.0924 550.879 76.2618C551.248 76.4312 551.578 76.6749 551.849 76.9776C552.12 77.2803 552.325 77.6356 552.453 78.0212C552.58 78.4069 552.626 78.8146 552.589 79.219H552.586ZM550.77 79.565C550.77 78.065 550.396 76.627 549.099 76.627C547.716 76.627 547.169 78.298 547.169 80.17C547.169 81.67 547.543 83.109 548.84 83.109C550.227 83.108 550.77 81.438 550.77 79.564V79.565Z" fill="#353A3A"/>
<path d="M560.073 82.9361C561.196 82.7061 561.744 82.5602 561.744 81.5232V67.4362C561.744 66.3992 561.197 66.2552 560.073 66.0252V65.5352H567.678C572.259 65.5352 574.909 67.4092 574.909 70.9222C574.909 74.4352 572.259 76.5112 567.678 76.5112H565.633C564.452 76.5112 564.049 76.9702 564.049 78.0362V81.5232C564.049 82.5602 564.596 82.7051 566.008 82.9361V83.4262H560.073V82.9361ZM567.678 75.7612C571.136 75.7612 572.378 73.7452 572.378 70.9802C572.378 68.2712 571.14 66.3132 567.678 66.3132H565.144C564.482 66.3132 564.05 66.4572 564.05 67.4672V74.2362C564.05 75.3022 564.45 75.7632 565.634 75.7632L567.678 75.7612Z" fill="#353A3A"/>
<path d="M578.017 76.2812V67.4362C578.017 66.3992 577.47 66.2552 576.346 66.0252V65.5352H581.993V66.0252C580.868 66.2552 580.322 66.3992 580.322 67.4362V75.6762C580.322 80.4002 582.222 82.6482 585.391 82.6482C588.098 82.6482 590.75 81.0932 590.75 75.8482V67.4352C590.75 66.3982 590.059 66.2542 588.964 66.0242V65.5342H593.343V66.0242C592.276 66.2542 591.643 66.3982 591.643 67.4352V75.9632C591.643 81.0342 589.108 83.7122 584.902 83.7122C580.983 83.7182 578.017 81.3812 578.017 76.2812V76.2812Z" fill="#353A3A"/>
<path d="M594.924 82.9361C596.047 82.7061 596.595 82.5602 596.595 81.5232V67.4362C596.595 66.3992 596.048 66.2552 594.924 66.0252V65.5352H602.385C606.907 65.5352 609.097 67.3512 609.097 70.3462C609.097 72.7372 607.743 74.0632 605.178 74.7832C604.978 74.8682 604.978 74.9832 605.178 75.0412C605.923 75.2997 606.588 75.7501 607.104 76.347C607.62 76.9439 607.969 77.6662 608.117 78.4412C609.125 81.8702 609.644 82.9361 610.738 82.9361V83.4262H610.162C607.482 83.4262 606.531 81.7262 605.783 78.9312C605.034 76.1662 603.623 75.2432 601.083 75.2432C599.297 75.2432 598.894 75.7042 598.894 76.7712V81.5232C598.894 82.5602 599.441 82.7051 600.854 82.9361V83.4262H594.924V82.9361ZM602.731 74.4652C605.669 74.4652 606.763 72.8812 606.763 70.4332C606.763 67.9852 605.697 66.3132 602.529 66.3132H599.994C599.33 66.3132 598.894 66.4572 598.894 67.4672V72.9392C598.894 74.0062 599.294 74.4662 600.48 74.4662L602.731 74.4652Z" fill="#353A3A"/>
<path d="M612.177 82.9361C613.3 82.7061 613.848 82.5602 613.848 81.5232V67.4362C613.848 66.3992 613.301 66.2552 612.177 66.0252V65.5352H625.026C625.285 65.5352 625.458 65.6212 625.487 65.9092C625.609 66.9271 625.792 67.9369 626.034 68.9332H625.516C625.293 68.1393 624.799 67.4485 624.12 66.9804C623.441 66.5124 622.62 66.2965 621.799 66.3702H617.911C616.757 66.3702 616.153 66.5432 616.153 67.5512V72.7372C616.153 73.7452 616.753 73.8912 617.911 73.8912H620.993C622.693 73.8912 623.067 73.1712 623.293 71.9022H623.693V76.8022H623.293C623.063 75.5332 622.693 74.7562 620.993 74.7562H617.911C616.757 74.7562 616.153 74.9012 616.153 75.9102V81.4102C616.153 82.3602 616.729 82.6202 619.035 82.5622L622.347 82.5352C624.509 82.5062 625.085 81.8422 625.517 81.1222L626.208 80.0282H626.726C626.237 80.9591 625.943 81.9798 625.862 83.0282C625.859 83.085 625.844 83.1405 625.819 83.1916C625.794 83.2426 625.759 83.2881 625.716 83.3254C625.673 83.3627 625.623 83.391 625.569 83.4086C625.515 83.4263 625.458 83.4329 625.401 83.4282H612.177V82.9361Z" fill="#353A3A"/>
<path d="M561.384 12.6182C576.061 12.617 590.409 16.9683 602.613 25.1217C614.817 33.2751 624.329 44.8644 629.946 58.424C635.564 71.9837 637.034 86.9045 634.171 101.3C631.307 115.695 624.24 128.918 613.862 139.296C603.483 149.674 590.261 156.742 575.865 159.605C561.47 162.468 546.55 160.998 532.99 155.38C519.43 149.763 507.841 140.251 499.688 128.047C491.534 115.843 487.183 101.495 487.184 86.8182C487.208 67.1464 495.033 48.287 508.943 34.3769C522.853 20.4668 541.712 12.6418 561.384 12.6182M561.384 11.1782C546.423 11.1782 531.797 15.6148 519.357 23.9269C506.917 32.2391 497.222 44.0534 491.496 57.876C485.771 71.6985 484.273 86.9085 487.192 101.582C490.111 116.256 497.315 129.735 507.895 140.314C518.474 150.894 531.953 158.098 546.627 161.017C561.301 163.936 576.511 162.437 590.333 156.712C604.156 150.986 615.97 141.29 624.282 128.85C632.594 116.41 637.03 101.785 637.03 86.8232C637.03 76.8893 635.073 67.0526 631.272 57.8749C627.47 48.6972 621.898 40.3581 614.874 33.3338C607.849 26.3095 599.51 20.7375 590.332 16.9361C581.155 13.1346 571.318 11.1781 561.384 11.1782V11.1782Z" fill="url(#paint24_linear_1166_130)"/>
<path d="M614.899 153.812L604.719 137.737C604.719 137.737 589.153 150.378 577.936 153.829C566.719 157.28 541.119 149.811 537.669 148.948C535.849 148.595 534.161 147.751 532.787 146.507L515.766 133.985L503.441 150.597L523.192 165.779L544.764 173.544H586.179L597.396 167.504L604.296 164.053L614.899 153.812Z" fill="white"/>
<path d="M518.769 143.558C519.048 142.093 519.061 141.666 518.321 140.992L518.549 140.667L522.149 143.158L521.932 143.469C520.807 142.942 520.632 143.231 520.48 144.028L518.88 152.307C518.825 152.661 518.906 152.716 519.21 152.513L526.275 148.158C527.051 147.686 526.893 147.094 526.053 146.325L526.268 146.015L529.307 148.12L529.091 148.43C528.749 148.236 528.357 148.147 527.964 148.173C527.571 148.2 527.195 148.341 526.882 148.58L518.938 153.453C518.489 153.691 518.096 154.024 517.787 154.428L516.828 153.763L518.769 143.558Z" fill="#1B1C1C"/>
<path d="M526.705 159.227C527.465 159.437 527.874 159.48 528.17 158.848L531.989 150.678C532.289 150.043 531.989 149.759 531.35 149.294L531.511 148.951L535.245 150.696L535.085 151.036C534.316 150.844 533.885 150.791 533.594 151.425L529.772 159.596C529.472 160.23 529.791 160.522 530.439 160.971L530.271 161.33L526.537 159.586L526.705 159.227Z" fill="#1B1C1C"/>
<path d="M536.959 163.479C538.114 163.679 538.545 163.671 538.742 163.001L541.259 154.491C541.442 153.875 541.387 153.581 539.987 153.166C538.687 152.781 538.145 153.016 537.205 154.278L536.777 154.151L537.788 151.827L538.835 152.196L546.221 154.381L547.3 154.642L546.885 157.142L546.454 157.017C546.37 155.452 546.029 154.958 544.724 154.57C543.324 154.157 543.138 154.377 542.956 154.995L540.439 163.502C540.239 164.175 540.574 164.412 541.657 164.87L541.543 165.252L536.843 163.861L536.959 163.479Z" fill="#1B1C1C"/>
<path d="M560.056 167.608L560.016 168.003L555.661 167.568L555.7 167.168C556.938 167.102 556.933 166.76 556.7 165.994L556.249 164.619C556.168 164.409 556.023 164.23 555.836 164.106C555.649 163.982 555.428 163.919 555.203 163.926L551.449 163.55C551.204 163.493 550.946 163.522 550.719 163.631C550.492 163.74 550.308 163.923 550.198 164.15L550.341 163.899L549.607 165.194C549.176 165.988 549.607 166.428 550.707 166.673L550.667 167.068L546.99 166.701L547.03 166.301C547.423 166.303 547.808 166.191 548.138 165.978C548.468 165.764 548.729 165.46 548.888 165.101L553.466 156.986C553.744 156.566 553.924 156.091 553.995 155.593H555.11L558.418 165.579C558.871 166.976 559.084 167.378 560.056 167.608V167.608ZM555.677 162.892L555.932 163.661L554.073 157.981C553.949 157.647 553.853 157.637 553.684 157.962L551.073 162.605C551.014 162.805 551.157 162.938 551.388 162.958L555.337 163.358C555.591 163.378 555.783 163.227 555.679 162.892H555.677ZM551.106 162.474L551.128 162.46C551.127 162.464 551.125 162.468 551.121 162.471C551.117 162.473 551.113 162.474 551.108 162.474H551.106Z" fill="#1B1C1C"/>
<path d="M564.527 167.431C565.289 167.219 565.66 167.048 565.591 166.354L564.666 157.376C564.595 156.676 564.197 156.587 563.406 156.518L563.367 156.141L567.467 155.722L567.506 156.099C566.747 156.328 566.355 156.499 566.427 157.199L567.347 166.175C567.407 166.758 567.733 167.068 568.547 166.966L571.547 166.505C571.977 166.481 572.391 166.339 572.746 166.095C573.1 165.851 573.38 165.514 573.555 165.121L573.826 164.521L574.272 164.476L573.987 165.703C573.871 166.081 573.845 166.481 573.912 166.871L564.567 167.827L564.527 167.431Z" fill="#1B1C1C"/>
<path d="M578.195 165.54C578.917 165.223 579.264 165.001 579.095 164.323L576.918 155.564C576.75 154.886 576.338 154.85 575.548 154.893L575.456 154.526L579.456 153.526L579.547 153.893C578.828 154.229 578.465 154.456 578.633 155.136L580.812 163.893C580.98 164.571 581.412 164.602 582.196 164.543L582.296 164.926L578.296 165.926L578.195 165.54Z" fill="#1B1C1C"/>
<path d="M588.851 162.382C589.875 161.812 590.2 161.532 589.933 160.882L586.533 152.694C586.285 152.101 586.058 151.908 584.713 152.468C583.456 152.989 583.188 153.514 583.253 155.082L582.841 155.255L582.161 152.813L583.207 152.44L590.307 149.485L591.307 149.007L592.56 151.207L592.148 151.38C591.097 150.218 590.521 150.048 589.265 150.572C587.919 151.131 587.916 151.42 588.165 152.015L591.571 160.204C591.839 160.849 592.248 160.823 593.378 160.498L593.529 160.865L589.002 162.749L588.851 162.382Z" fill="#1B1C1C"/>
<path d="M602.66 155.484C603.553 154.719 603.801 154.391 603.406 153.812L601.597 151.149C601.366 150.828 601.034 150.594 600.654 150.485L596.344 148.673C595.94 148.429 595.489 148.274 595.021 148.218C594.552 148.161 594.077 148.204 593.627 148.345L593.415 148.031L596.989 145.606L597.201 145.919C596.465 146.672 596.618 147.002 597.501 147.365L601.784 149.171C601.809 149.181 601.836 149.184 601.863 149.181C601.889 149.178 601.915 149.168 601.937 149.153C601.96 149.138 601.978 149.118 601.991 149.095C602.004 149.071 602.011 149.045 602.012 149.018L601.843 144.507C601.795 143.257 601.137 143.364 600.423 143.732L600.213 143.418L603.174 141.409L603.387 141.721C602.687 142.313 602.487 142.856 602.52 144.254L602.644 149.041C602.672 149.445 602.819 149.831 603.067 150.15L604.874 152.813C605.267 153.393 605.665 153.284 606.704 152.738L606.929 153.068L602.887 155.809L602.66 155.484Z" fill="#1B1C1C"/>
</g>
<defs>
<linearGradient id="paint0_linear_1166_130" x1="10.0002" y1="80.8035" x2="170.943" y2="80.8035" gradientUnits="userSpaceOnUse">
<stop stop-color="#D8BBCE"/>
<stop offset="1" stop-color="#EBABA1"/>
</linearGradient>
<linearGradient id="paint1_linear_1166_130" x1="38.2639" y1="102.467" x2="142.48" y2="102.467" gradientUnits="userSpaceOnUse">
<stop stop-color="#D8BBCE"/>
<stop offset="1" stop-color="#EBABA1"/>
</linearGradient>
<linearGradient id="paint2_linear_1166_130" x1="38.2545" y1="102.471" x2="142.515" y2="102.471" gradientUnits="userSpaceOnUse">
<stop stop-color="#D8BBCE"/>
<stop offset="1" stop-color="#EBABA1"/>
</linearGradient>
<linearGradient id="paint3_linear_1166_130" x1="38.2534" y1="102.465" x2="142.49" y2="102.465" gradientUnits="userSpaceOnUse">
<stop stop-color="#D8BBCE"/>
<stop offset="1" stop-color="#EBABA1"/>
</linearGradient>
<linearGradient id="paint4_linear_1166_130" x1="38.2521" y1="102.467" x2="142.485" y2="102.467" gradientUnits="userSpaceOnUse">
<stop stop-color="#D8BBCE"/>
<stop offset="1" stop-color="#EBABA1"/>
</linearGradient>
<linearGradient id="paint5_linear_1166_130" x1="38.2508" y1="102.466" x2="142.474" y2="102.466" gradientUnits="userSpaceOnUse">
<stop stop-color="#D8BBCE"/>
<stop offset="1" stop-color="#EBABA1"/>
</linearGradient>
<linearGradient id="paint6_linear_1166_130" x1="38.1598" y1="102.452" x2="142.481" y2="102.452" gradientUnits="userSpaceOnUse">
<stop stop-color="#D8BBCE"/>
<stop offset="1" stop-color="#EBABA1"/>
</linearGradient>
<linearGradient id="paint7_linear_1166_130" x1="16.0769" y1="81.6247" x2="164.867" y2="81.6247" gradientUnits="userSpaceOnUse">
<stop stop-color="#D8BBCE"/>
<stop offset="1" stop-color="#EBABA1"/>
</linearGradient>
<linearGradient id="paint8_linear_1166_130" x1="280.002" y1="106.288" x2="371.283" y2="106.288" gradientUnits="userSpaceOnUse">
<stop stop-color="#C2F2E2"/>
<stop offset="1" stop-color="#5BB3BA"/>
</linearGradient>
<linearGradient id="paint9_linear_1166_130" x1="280.001" y1="106.281" x2="371.315" y2="106.281" gradientUnits="userSpaceOnUse">
<stop stop-color="#C2F2E2"/>
<stop offset="1" stop-color="#5BB3BA"/>
</linearGradient>
<linearGradient id="paint10_linear_1166_130" x1="279.973" y1="106.282" x2="371.317" y2="106.282" gradientUnits="userSpaceOnUse">
<stop stop-color="#C2F2E2"/>
<stop offset="1" stop-color="#5BB3BA"/>
</linearGradient>
<linearGradient id="paint11_linear_1166_130" x1="279.985" y1="106.284" x2="371.308" y2="106.284" gradientUnits="userSpaceOnUse">
<stop stop-color="#C2F2E2"/>
<stop offset="1" stop-color="#5BB3BA"/>
</linearGradient>
<linearGradient id="paint12_linear_1166_130" x1="280.003" y1="106.288" x2="371.306" y2="106.288" gradientUnits="userSpaceOnUse">
<stop stop-color="#C2F2E2"/>
<stop offset="1" stop-color="#5BB3BA"/>
</linearGradient>
<linearGradient id="paint13_linear_1166_130" x1="280" y1="106.294" x2="371.307" y2="106.294" gradientUnits="userSpaceOnUse">
<stop stop-color="#C2F2E2"/>
<stop offset="1" stop-color="#5BB3BA"/>
</linearGradient>
<linearGradient id="paint14_linear_1166_130" x1="244.796" y1="71.107" x2="406.76" y2="71.107" gradientUnits="userSpaceOnUse">
<stop stop-color="#C2F2E2"/>
<stop offset="1" stop-color="#5BB3BA"/>
</linearGradient>
<linearGradient id="paint15_linear_1166_130" x1="250.911" y1="72.0912" x2="400.657" y2="72.0912" gradientUnits="userSpaceOnUse">
<stop stop-color="#C2F2E2"/>
<stop offset="1" stop-color="#5BB3BA"/>
</linearGradient>
<linearGradient id="paint16_linear_1166_130" x1="479.561" y1="86.824" x2="643.209" y2="86.824" gradientUnits="userSpaceOnUse">
<stop stop-color="#A1B8D1"/>
<stop offset="1" stop-color="#CCC1E0"/>
</linearGradient>
<linearGradient id="paint17_linear_1166_130" x1="504.394" y1="107.93" x2="616.763" y2="107.93" gradientUnits="userSpaceOnUse">
<stop stop-color="#A1B8D1"/>
<stop offset="1" stop-color="#CCC1E0"/>
</linearGradient>
<linearGradient id="paint18_linear_1166_130" x1="504.387" y1="107.939" x2="616.777" y2="107.939" gradientUnits="userSpaceOnUse">
<stop stop-color="#A1B8D1"/>
<stop offset="1" stop-color="#CCC1E0"/>
</linearGradient>
<linearGradient id="paint19_linear_1166_130" x1="504.394" y1="107.947" x2="616.769" y2="107.947" gradientUnits="userSpaceOnUse">
<stop stop-color="#A1B8D1"/>
<stop offset="1" stop-color="#CCC1E0"/>
</linearGradient>
<linearGradient id="paint20_linear_1166_130" x1="504.402" y1="107.946" x2="616.768" y2="107.946" gradientUnits="userSpaceOnUse">
<stop stop-color="#A1B8D1"/>
<stop offset="1" stop-color="#CCC1E0"/>
</linearGradient>
<linearGradient id="paint21_linear_1166_130" x1="504.307" y1="107.952" x2="616.781" y2="107.952" gradientUnits="userSpaceOnUse">
<stop stop-color="#A1B8D1"/>
<stop offset="1" stop-color="#CCC1E0"/>
</linearGradient>
<linearGradient id="paint22_linear_1166_130" x1="504.372" y1="107.939" x2="616.776" y2="107.939" gradientUnits="userSpaceOnUse">
<stop stop-color="#A1B8D1"/>
<stop offset="1" stop-color="#CCC1E0"/>
</linearGradient>
<linearGradient id="paint23_linear_1166_130" x1="504.388" y1="107.948" x2="616.769" y2="107.948" gradientUnits="userSpaceOnUse">
<stop stop-color="#A1B8D1"/>
<stop offset="1" stop-color="#CCC1E0"/>
</linearGradient>
<linearGradient id="paint24_linear_1166_130" x1="485.738" y1="86.8242" x2="637.03" y2="86.8242" gradientUnits="userSpaceOnUse">
<stop stop-color="#A1B8D1"/>
<stop offset="1" stop-color="#CCC1E0"/>
</linearGradient>
<clipPath id="clip0_1166_130">
<rect width="180" height="179" fill="white"/>
</clipPath>
<clipPath id="clip1_1166_130">
<rect width="180" height="179" fill="white" transform="translate(236)"/>
</clipPath>
<clipPath id="clip2_1166_130">
<rect width="180" height="179" fill="white" transform="translate(472)"/>
</clipPath>
</defs>
</svg>
