<svg width="45" height="45" viewBox="0 0 45 45" fill="none" xmlns="http://www.w3.org/2000/svg">
<circle cx="22.5" cy="22.5" r="22.5" fill="url(#paint0_linear_583_784)"/>
<path d="M27.8045 19.2752C28.401 19.2752 28.8845 18.7917 28.8845 18.1952C28.8845 17.5988 28.401 17.1152 27.8045 17.1152C27.208 17.1152 26.7245 17.5988 26.7245 18.1952C26.7245 18.7917 27.208 19.2752 27.8045 19.2752Z" fill="white"/>
<path d="M23 18.3789C22.086 18.3789 21.1925 18.65 20.4325 19.1578C19.6725 19.6656 19.0801 20.3874 18.7303 21.2318C18.3805 22.0763 18.289 23.0055 18.4673 23.902C18.6457 24.7985 19.0858 25.622 19.7321 26.2683C20.3785 26.9146 21.2019 27.3548 22.0984 27.5331C22.9949 27.7114 23.9241 27.6199 24.7686 27.2701C25.6131 26.9203 26.3349 26.328 26.8427 25.568C27.3505 24.808 27.6215 23.9145 27.6215 23.0004C27.6215 21.7747 27.1346 20.5992 26.2679 19.7325C25.4012 18.8658 24.2257 18.3789 23 18.3789ZM23 26.0004C22.4067 26.0004 21.8267 25.8245 21.3333 25.4948C20.84 25.1652 20.4555 24.6966 20.2284 24.1485C20.0013 23.6003 19.9419 22.9971 20.0577 22.4151C20.1734 21.8332 20.4592 21.2986 20.8787 20.8791C21.2983 20.4595 21.8328 20.1738 22.4148 20.058C22.9967 19.9423 23.5999 20.0017 24.1481 20.2288C24.6963 20.4558 25.1648 20.8403 25.4945 21.3337C25.8241 21.827 26 22.4071 26 23.0004C26 23.7961 25.684 24.5591 25.1214 25.1217C24.5588 25.6843 23.7957 26.0004 23 26.0004Z" fill="white"/>
<path d="M23 15.6215C25.403 15.6215 25.688 15.6305 26.6368 15.674C27.2074 15.6808 27.7726 15.7855 28.3077 15.9837C28.696 16.1335 29.0486 16.3629 29.3428 16.6572C29.6371 16.9514 29.8665 17.304 30.0163 17.6923C30.2145 18.2274 30.3192 18.7926 30.326 19.3632C30.3695 20.312 30.3785 20.597 30.3785 23.0007C30.3785 25.4045 30.3695 25.688 30.326 26.6368C30.3192 27.2074 30.2145 27.7726 30.0163 28.3077C29.8665 28.696 29.6371 29.0486 29.3428 29.3428C29.0486 29.6371 28.696 29.8665 28.3077 30.0163C27.7726 30.2145 27.2074 30.3192 26.6368 30.326C25.688 30.3695 25.403 30.3785 23 30.3785C20.597 30.3785 20.312 30.3695 19.3632 30.326C18.7926 30.3192 18.2274 30.2145 17.6923 30.0163C17.304 29.8665 16.9514 29.6371 16.6572 29.3428C16.3629 29.0486 16.1335 28.696 15.9837 28.3077C15.7855 27.7726 15.6808 27.2074 15.674 26.6368C15.6305 25.688 15.6215 25.403 15.6215 23C15.6215 20.597 15.6305 20.312 15.674 19.3632C15.6808 18.7926 15.7855 18.2274 15.9837 17.6923C16.1335 17.304 16.3629 16.9514 16.6572 16.6572C16.9514 16.3629 17.304 16.1335 17.6923 15.9837C18.2274 15.7855 18.7926 15.6808 19.3632 15.674C20.312 15.6305 20.597 15.6215 23 15.6215ZM23 14C20.5557 14 20.249 14.0105 19.289 14.054C18.5426 14.0691 17.8041 14.2106 17.105 14.4725C16.507 14.7037 15.964 15.0573 15.5107 15.5107C15.0573 15.964 14.7037 16.507 14.4725 17.105C14.2105 17.8044 14.069 18.5431 14.054 19.2898C14.0105 20.2498 14 20.555 14 23C14 25.445 14.0105 25.751 14.054 26.711C14.0691 27.4574 14.2106 28.1959 14.4725 28.895C14.7037 29.493 15.0573 30.036 15.5107 30.4893C15.964 30.9427 16.507 31.2963 17.105 31.5275C17.8044 31.7895 18.5431 31.931 19.2898 31.946C20.2498 31.9895 20.5557 32 23 32C25.4443 32 25.751 31.9895 26.711 31.946C27.4577 31.931 28.1964 31.7895 28.8958 31.5275C29.4937 31.2963 30.0368 30.9427 30.4901 30.4893C30.9434 30.036 31.297 29.493 31.5282 28.895C31.79 28.1956 31.9313 27.4569 31.946 26.7103C31.9895 25.7503 32 25.445 32 23C32 20.555 31.9895 20.249 31.946 19.289C31.9309 18.5426 31.7894 17.8041 31.5275 17.105C31.2963 16.507 30.9427 15.964 30.4893 15.5107C30.036 15.0573 29.493 14.7037 28.895 14.4725C28.1956 14.2107 27.4569 14.0695 26.7103 14.0547C25.7503 14.0097 25.445 14 23 14Z" fill="white"/>
<defs>
<linearGradient id="paint0_linear_583_784" x1="22.5" y1="0" x2="22.5" y2="45" gradientUnits="userSpaceOnUse">
<stop stop-color="#60697A"/>
<stop offset="1" stop-color="#313C52"/>
</linearGradient>
</defs>
</svg>
