<svg width="296" height="86" viewBox="0 0 296 86" fill="none" xmlns="http://www.w3.org/2000/svg">
<g clip-path="url(#clip0_579_330)">
<path d="M161.591 8.38359C159.94 7.67448 158.132 8.06843 156.482 9.40787C155.807 8.78124 154.973 8.35388 154.071 8.1731C153.169 7.99232 152.235 8.06518 151.372 8.38359C150.542 8.71385 149.834 9.29132 149.342 10.0381C148.85 10.7848 148.598 11.6649 148.621 12.5595C148.621 15.7111 150.822 17.2869 152.944 18.8628C153.951 19.5751 154.922 20.3377 155.853 21.1477L156.482 21.778L157.11 21.1477C158.01 20.3005 158.983 19.5358 160.019 18.8628C162.141 17.2869 164.342 15.7899 164.342 12.5595C164.349 11.6684 164.091 10.7955 163.601 10.0519C163.111 9.30824 162.411 8.72752 161.591 8.38359ZM158.918 17.3657C158.132 17.9961 157.268 18.5476 156.482 19.2567C155.708 18.5777 154.894 17.9462 154.045 17.3657C152.001 15.8687 150.429 14.7656 150.429 12.4807C150.434 11.9461 150.592 11.4242 150.885 10.9772C151.178 10.5301 151.592 10.1769 152.08 9.95941C152.399 9.80673 152.748 9.72604 153.101 9.72303C153.644 9.75865 154.173 9.90245 154.659 10.146C155.145 10.3895 155.578 10.7279 155.931 11.1413L156.56 11.7716L157.189 11.1413C158.447 9.88062 159.783 9.48666 161.041 9.95941C161.531 10.1728 161.948 10.5251 162.242 10.973C162.535 11.4209 162.691 11.945 162.691 12.4807C162.613 14.8444 161.119 15.8687 158.918 17.3657ZM153.966 28.2388L152.237 28.554L153.809 36.2755L135.101 40.215L129.362 12.8747C129.299 12.5763 129.355 12.2648 129.52 12.008C129.755 11.7716 129.913 11.614 130.227 11.614L139.817 9.56545L139.503 7.75327L129.913 9.80183C129.145 10.0097 128.476 10.4845 128.026 11.1413C127.634 11.7759 127.493 12.5352 127.633 13.2686L134.472 45.494C134.642 46.2379 135.093 46.8871 135.729 47.3062C136.196 47.6155 136.743 47.78 137.302 47.7789C137.514 47.7917 137.727 47.765 137.93 47.7001L154.438 44.1546C155.178 43.9975 155.825 43.5525 156.238 42.9172C156.651 42.2819 156.795 41.5084 156.639 40.7666L153.966 28.2388ZM153.966 42.4212L137.459 45.9667C137.314 46.0002 137.164 46.0042 137.018 45.9784C136.872 45.9527 136.732 45.8978 136.608 45.8169C136.483 45.7361 136.376 45.631 136.292 45.5078C136.209 45.3847 136.151 45.246 136.123 45.1L135.415 42.106L154.123 38.1665L154.831 41.1605C154.865 41.3008 154.87 41.4468 154.844 41.589C154.818 41.7311 154.762 41.8661 154.681 41.9852C154.599 42.1043 154.493 42.2047 154.37 42.2798C154.247 42.3549 154.109 42.4031 153.966 42.4212ZM146.577 41.0029L146.892 42.6575L143.983 43.2879L143.59 41.4757L146.577 41.0029ZM156.482 0.662109C147.756 0.662109 140.682 6.41383 140.682 13.505C140.724 15.0979 141.086 16.6659 141.748 18.1147C142.41 19.5635 143.358 20.8632 144.533 21.9356C144.306 24.2929 143.939 26.6346 143.433 28.948C143.297 29.3039 143.277 29.6938 143.376 30.0619C143.475 30.4299 143.687 30.7571 143.983 30.9965C144.277 31.218 144.638 31.3295 145.005 31.3117C145.335 31.3176 145.66 31.236 145.948 31.0753C148.387 29.5195 150.724 27.8089 152.944 25.9539C154.137 26.176 155.348 26.2816 156.56 26.2691C165.285 26.2691 172.36 20.5174 172.36 13.4262C172.36 6.33504 165.207 0.662109 156.482 0.662109ZM156.482 24.6145C155.266 24.6002 154.055 24.4683 152.866 24.2205L152.473 24.1417L152.158 24.3781C149.928 26.2451 147.592 27.9813 145.162 29.5783V29.4207C145.829 26.8668 146.25 24.2548 146.42 21.6204V21.2265L146.106 20.9901C145.006 20.0894 144.114 18.9614 143.49 17.6831C142.866 16.4048 142.525 15.0065 142.49 13.5838C142.49 7.5169 148.778 2.55309 156.56 2.55309C164.342 2.55309 170.631 7.5169 170.631 13.5838C170.631 19.6507 164.264 24.6145 156.482 24.6145Z" fill="url(#paint0_linear_579_330)"/>
<path d="M32.9911 34.6995C32.3372 34.532 31.726 34.2278 31.1977 33.8069C30.6694 33.3859 30.2358 32.8578 29.9254 32.257C28.1961 29.3418 25.3663 29.1842 23.1653 31.7764C22.8509 32.1703 22.4578 32.5643 22.1434 32.9583C20.8071 34.2268 19.4708 33.9825 18.7633 32.257C18.2917 31.0752 18.0559 29.8066 17.5843 28.6248C17.3484 28.0732 16.7982 27.7581 16.3265 27.3641C16.0907 27.9157 15.6191 28.546 15.7763 29.0975C16.6271 33.2994 18.7525 37.1352 21.8618 40.0798C24.971 43.0244 28.9121 44.934 33.1457 45.5472C37.3793 46.1605 41.6985 45.4474 45.5122 43.5056C49.3259 41.5638 52.4478 38.4881 54.4506 34.6995C55.6297 32.3358 58.6168 32.8086 60.5819 31.4691C62.7043 30.0509 63.4117 27.6872 61.8396 25.5598C60.7391 24.0628 59.167 22.8809 57.8307 21.5415C57.1532 20.9291 56.6168 20.1763 56.2586 19.3354C54.7242 13.9943 51.142 9.47979 46.2955 6.77919C41.449 4.07858 35.7328 3.41175 30.3971 4.92454C29.2808 5.22762 28.2003 5.65027 27.1742 6.18519C26.624 6.42156 25.8379 7.28826 25.9951 7.60342C26.3096 8.70649 27.1742 8.15496 27.9603 7.8398C29.5193 7.21989 31.122 6.71687 32.7553 6.33489C33.1456 6.32379 33.5332 6.40336 33.8878 6.56739C34.2423 6.73141 34.5542 6.97544 34.799 7.28038C35.1135 7.59554 34.8776 8.54103 34.7204 9.09257C34.4267 9.6655 34.0565 10.1956 33.6199 10.6684C32.4408 12.4018 32.3622 13.5836 33.9344 14.8443C36.5284 16.9007 37.7075 19.2644 36.9214 22.5658V22.8809C36.8981 23.9821 37.2766 25.054 37.9857 25.8954C38.6949 26.7368 39.686 27.2898 40.7731 27.4508C41.7083 27.6077 42.6548 27.6868 43.6029 27.6872C48.7124 27.6872 49.8915 25.7174 47.5333 21.1475C47.1402 20.4463 47.0616 19.099 47.4547 18.705C48.5324 17.6784 49.7833 16.8514 51.1492 16.2625C52.171 15.7898 53.1143 16.3413 53.5859 17.602C55.2297 21.5497 55.4793 25.9416 54.2934 30.0509C54.0576 30.9176 53.6646 31.3115 52.7213 31.1539C50.4417 30.8388 48.0835 30.76 45.8039 30.2873C38.8866 28.9478 32.4408 26.1901 26.2309 22.9597C25.7593 22.7234 24.9732 22.9597 24.3444 22.9597C24.6588 23.5113 24.816 24.2204 25.2877 24.4567C30.7375 27.6423 36.6139 30.0302 42.7383 31.5479C46.0397 32.3358 49.4984 32.8086 52.7999 33.3601C51.0705 38.4815 43.5243 43.6029 37.7075 43.5241C38.2577 39.75 36.1353 35.645 32.9911 34.7074V34.6995ZM51.385 13.9067C49.7087 14.7162 48.1046 15.6677 46.59 16.751C44.7034 18.2402 44.5462 20.3754 45.8825 22.4239C45.9611 22.5736 46.0397 22.6603 46.1183 22.8179C47.376 24.9374 46.9044 25.8119 44.4676 25.8829H43.6816C39.4368 25.8829 38.4149 24.8586 38.9652 20.6827C39.3582 18.0038 38.0219 16.1128 36.1353 14.4582C34.2488 12.8036 34.3274 12.8036 35.8209 10.9126C36.4232 10.285 36.8151 9.48455 36.9419 8.62299C37.0688 7.76143 36.9242 6.88167 36.5284 6.1064C41.795 5.63366 49.0268 9.57319 51.385 13.9067ZM24.6588 33.0607C26.1523 31.4849 27.3314 31.4849 28.4319 33.368C28.7937 34.1582 29.3395 34.8498 30.0234 35.3845C30.7074 35.9193 31.5095 36.2815 32.3622 36.4408C34.3274 36.8348 36.2139 39.9864 36.1353 42.0349C36.0567 43.2168 35.6637 43.8471 34.2488 43.6974C31.6549 43.4595 29.1417 42.6685 26.8777 41.3776C24.6137 40.0867 22.6511 38.3256 21.1215 36.2123C22.3006 35.1092 23.5583 34.1637 24.6588 33.0607ZM57.2804 23.2906C58.3357 24.3105 59.3329 25.389 60.2675 26.5211C61.368 28.0969 61.0536 29.2787 59.3242 30.1454C58.3809 30.5394 57.3591 30.9333 56.3372 31.2485C56.6516 28.412 56.8874 26.0483 57.2804 23.2906Z" fill="url(#paint1_linear_579_330)"/>
<path d="M12.239 27.8609C12.632 27.8609 13.3394 27.1518 13.4181 26.679C13.8897 24.7881 14.2041 22.8971 14.5971 21.0061C14.6758 20.5334 14.833 20.0606 14.9116 19.5091C15.6341 19.7317 16.2568 20.1994 16.6727 20.832C17.0887 21.4646 17.272 22.2226 17.1912 22.9759C17.1912 23.9214 19.2349 26.0487 20.1782 26.0487C20.4664 26.0275 20.741 25.9174 20.9643 25.7335C21.0611 25.6423 21.1389 25.5326 21.1928 25.4108C21.2468 25.289 21.276 25.1577 21.2787 25.0244C21.2909 23.8238 21.7098 22.6629 22.4668 21.7323C23.2239 20.8017 24.2739 20.1567 25.4448 19.903C25.7005 19.8189 25.9215 19.6528 26.0737 19.4303C26.1583 19.3046 26.216 19.1627 26.243 19.0135C26.2701 18.8643 26.266 18.7111 26.2309 18.5636C25.9951 17.6969 23.5583 16.0423 22.615 16.2787C21.8989 16.507 21.1265 16.483 20.4259 16.2107C19.7253 15.9384 19.1386 15.4342 18.7633 14.7816C19.193 14.5395 19.6396 14.3289 20.0996 14.1513C21.9075 13.3634 23.6369 12.6543 25.3662 11.7876C25.6155 11.6406 25.8247 11.4343 25.9755 11.1869C26.1263 10.9395 26.214 10.6588 26.2309 10.3694C25.9165 9.18751 23.3225 8.00565 22.1434 8.24202C19.7852 8.71477 17.3484 9.18751 14.9902 9.81784C14.3301 10.0834 13.6036 10.135 12.9128 9.96541C12.2219 9.79583 11.6014 9.41358 11.1385 8.87235C10.5594 8.29044 9.85286 7.85209 9.07499 7.59219C8.29712 7.33229 7.46946 7.25803 6.65791 7.37533C6.29896 7.40719 5.95076 7.51459 5.63603 7.69049L5.55742 7.6117C5.49852 7.77401 5.38805 7.91243 5.243 8.00565L5.3216 8.08444C5.21763 8.41536 5.19073 8.76576 5.243 9.10872C5.27589 9.93196 5.50768 10.7349 5.91843 11.4485C6.32919 12.1622 6.90664 12.7652 7.60119 13.2058C8.21729 13.5479 8.71362 14.0714 9.02295 14.7056C9.33228 15.3398 9.43965 16.054 9.33053 16.7514C9.17331 19.1939 9.25192 21.6364 9.25192 24.0789C9.25192 25.576 10.9813 27.8609 12.239 27.8609ZM11.5315 25.182C11.3894 24.7157 11.2843 24.2388 11.2171 23.7559C11.1259 21.7601 11.1521 19.7606 11.2957 17.7678C11.6101 15.0889 10.9813 13.0404 8.54446 11.6221C8.27945 11.6696 8.00634 11.6372 7.75974 11.5289C7.51314 11.4207 7.30414 11.2415 7.15922 11.0141C7.01429 10.7867 6.93997 10.5213 6.94566 10.2515C6.95135 9.98173 7.0368 9.71971 7.19118 9.49865C7.34556 9.27758 7.56193 9.10742 7.81288 9.00972C8.06382 8.91202 8.33805 8.89118 8.60083 8.94983C8.8636 9.00848 9.1031 9.14399 9.28897 9.33919C9.47485 9.53439 9.59874 9.78049 9.64495 10.0463V10.2039C11.5315 12.3313 13.6539 12.4888 16.2479 11.6221C18.1571 11.0526 20.0998 10.6026 22.0648 10.2748C22.5595 10.196 23.0635 10.196 23.5583 10.2748L23.6369 10.8264L17.2698 13.6628C15.6976 14.3719 15.619 14.8447 16.9553 16.0265C17.427 16.4205 17.8986 16.7357 18.3703 17.2084C19.4707 18.3115 20.7284 18.9418 22.3006 18.3903C22.5454 18.3431 22.7972 18.3467 23.0406 18.4009C23.284 18.4551 23.5137 18.5587 23.7155 18.7054C22.7774 19.0873 21.9229 19.6494 21.2001 20.36C21.1215 20.4467 21.1215 20.5176 21.0429 20.5964C20.9643 20.6752 20.9643 20.754 20.8857 20.754C20.3584 21.6316 19.9862 22.5939 19.7852 23.5983C19.4597 23.2247 19.2663 22.7539 19.2349 22.2589C19.4707 20.5255 18.6061 19.5012 17.2698 18.6266C16.7981 18.3193 16.3265 17.8387 15.8548 17.5314C14.4399 16.4284 14.0469 16.586 13.6539 18.3193L12.239 25.1741L11.5315 25.182Z" fill="url(#paint2_linear_579_330)"/>
<path d="M233.201 24.3775C233.201 13.268 242.398 4.20708 253.796 4.20708C257.522 4.14969 261.201 5.04451 264.487 6.80718L259.299 7.59508C259.104 7.63342 258.931 7.74404 258.815 7.90476C258.698 8.06549 258.646 8.26445 258.67 8.46178C258.712 8.64668 258.81 8.814 258.951 8.94091C259.092 9.06782 259.268 9.14813 259.456 9.1709H259.535L266.845 8.06783C266.945 8.05674 267.042 8.02486 267.129 7.97421C267.216 7.92356 267.291 7.85527 267.35 7.77369C267.409 7.69212 267.451 7.59906 267.472 7.50047C267.494 7.40188 267.494 7.29992 267.474 7.20113C267.474 7.12234 267.395 7.04355 267.395 6.96476L264.015 0.425133C263.966 0.32968 263.898 0.245328 263.815 0.177263C263.732 0.109198 263.636 0.0588581 263.533 0.029339C263.43 -0.000180043 263.322 -0.00825465 263.215 0.00561164C263.109 0.0194779 263.007 0.054992 262.915 0.10997C262.819 0.159311 262.735 0.227653 262.667 0.310797C262.599 0.393941 262.549 0.490128 262.52 0.593444C262.49 0.696761 262.482 0.805024 262.496 0.911576C262.51 1.01813 262.545 1.12072 262.6 1.21304L264.723 5.23136C261.344 3.50037 257.59 2.6342 253.796 2.71006C241.612 2.71006 231.629 12.4801 231.629 24.4563C231.634 28.985 233.064 33.3967 235.717 37.0628C235.774 37.1507 235.847 37.2266 235.933 37.2861C236.019 37.3456 236.116 37.3875 236.218 37.4094C236.32 37.4314 236.426 37.4329 236.529 37.414C236.631 37.3951 236.73 37.3561 236.817 37.2992C236.905 37.2423 236.981 37.1686 237.04 37.0823C237.099 36.9961 237.141 36.899 237.163 36.7966C237.185 36.6941 237.187 36.5884 237.168 36.4854C237.149 36.3823 237.11 36.284 237.053 36.1961C234.56 32.7611 233.212 28.6252 233.201 24.3775Z" fill="url(#paint3_linear_579_330)"/>
<path d="M271.483 11.3767C271.358 11.2095 271.171 11.099 270.965 11.0694C270.759 11.0399 270.549 11.0937 270.382 11.2191C270.215 11.3445 270.105 11.5311 270.076 11.738C270.046 11.9449 270.1 12.155 270.225 12.3222C272.881 15.7762 274.319 20.0161 274.313 24.3771C274.313 35.4866 265.116 44.5476 253.718 44.5476C249.978 44.5598 246.297 43.6103 243.027 41.7899L248.608 40.9232C248.712 40.9128 248.812 40.8822 248.903 40.8331C248.995 40.7839 249.075 40.7172 249.141 40.6367C249.207 40.5562 249.256 40.4636 249.286 40.364C249.316 40.2645 249.326 40.16 249.316 40.0565C249.305 39.953 249.275 39.8526 249.226 39.761C249.177 39.6693 249.11 39.5883 249.03 39.5224C248.95 39.4566 248.857 39.4072 248.758 39.3772C248.659 39.3472 248.554 39.337 248.451 39.3474L240.826 40.608C240.748 40.608 240.748 40.608 240.669 40.6868H240.59C240.58 40.6868 240.57 40.6889 240.56 40.6928C240.551 40.6968 240.542 40.7026 240.535 40.7099C240.528 40.7172 240.522 40.7259 240.518 40.7355C240.514 40.745 240.512 40.7553 240.512 40.7656H240.433L240.355 40.8444L240.276 40.9232C240.276 40.9441 240.268 40.9641 240.253 40.9789C240.238 40.9937 240.218 41.002 240.197 41.002C240.197 41.0808 240.119 41.0808 240.119 41.1596V41.5535C240.119 41.6323 240.119 41.6323 240.197 41.6323L244.049 48.8022C244.153 48.9903 244.328 49.1292 244.534 49.1883C244.741 49.2474 244.962 49.2219 245.15 49.1174C245.337 49.0129 245.476 48.838 245.535 48.6311C245.594 48.4243 245.568 48.2024 245.464 48.0143V47.9356L242.949 43.3657C246.276 45.0926 249.971 45.9848 253.718 45.9658C265.902 45.9658 275.885 36.1957 275.885 24.2196C275.917 19.5615 274.364 15.0315 271.483 11.3767Z" fill="url(#paint4_linear_579_330)"/>
<path d="M241.062 30.2864C241.049 30.4407 241.089 30.5947 241.175 30.7234C241.26 30.8521 241.387 30.9481 241.534 30.9956L254.032 36.7473C254.111 36.7473 254.111 36.7473 254.189 36.8261H254.582C254.661 36.8261 254.661 36.8261 254.74 36.7473L266.531 30.9956C266.661 30.9252 266.772 30.8237 266.855 30.7001C266.937 30.5764 266.988 30.4344 267.002 30.2864V24.1408L269.832 22.7225C270.017 22.6365 270.162 22.4815 270.236 22.2903C270.309 22.0991 270.305 21.8867 270.225 21.6983L270.146 21.6195L266.845 16.9708L266.766 16.892L266.688 16.8132L266.609 16.7345H266.373L254.268 12.7949H253.639L241.534 16.7345H241.455C241.445 16.7345 241.435 16.7365 241.425 16.7405C241.415 16.7444 241.407 16.7502 241.4 16.7575C241.392 16.7648 241.386 16.7735 241.382 16.7831C241.379 16.7927 241.376 16.8029 241.376 16.8132L241.298 16.892L237.603 21.5407C237.541 21.6235 237.496 21.7177 237.471 21.8179C237.445 21.9181 237.439 22.0224 237.454 22.1249C237.469 22.2273 237.503 22.3258 237.556 22.4149C237.608 22.5039 237.678 22.5817 237.761 22.6438C237.839 22.6438 237.839 22.7225 237.918 22.7225L241.141 24.2196L241.062 30.2864ZM242.634 24.9287L250.338 28.4743C250.51 28.5539 250.704 28.5739 250.889 28.5311C251.074 28.4883 251.239 28.3852 251.359 28.2379L253.56 24.9287V34.7775L242.634 29.7349V24.9287ZM253.953 19.177C254.162 19.177 254.362 19.094 254.509 18.9462C254.657 18.7984 254.74 18.598 254.74 18.3891V14.4495L263.858 17.4436L254.347 21.5407L244.128 17.3648L253.167 14.4495V18.3891C253.167 18.598 253.25 18.7984 253.398 18.9462C253.545 19.094 253.745 19.177 253.953 19.177ZM265.273 29.7349L255.133 34.6987V24.5347L257.805 27.8439C257.913 27.9837 258.065 28.083 258.236 28.1258C258.407 28.1687 258.588 28.1527 258.748 28.0803L265.351 24.8499L265.273 29.7349ZM258.591 26.4257L255.604 22.7225L265.823 18.3103L268.181 21.6983L258.591 26.4257ZM242.084 18.2315L253.089 22.6438L250.338 26.6621L242.163 22.8801C242.12 22.8373 242.065 22.8097 242.005 22.8013L239.333 21.5407L242.084 18.2315Z" fill="url(#paint5_linear_579_330)"/>
<path d="M1.10835 55.1846V64.6394H0V55.1846H1.10835Z" fill="#313C52"/>
<path d="M4.3784 58.6916V59.7553C4.58745 59.3597 4.89964 59.0285 5.2817 58.7967C5.66376 58.565 6.10138 58.4415 6.54794 58.4395C7.97857 58.4395 8.78822 59.2825 8.78822 60.8032V64.6403H7.7742V61.2365C7.7742 59.9522 7.2947 59.3928 6.26495 59.3928C5.23521 59.3928 4.3784 60.3304 4.3784 61.6699V64.6403H3.36438V58.6916H4.3784Z" fill="#313C52"/>
<path d="M14.0156 64.703C13.6659 64.8321 13.2956 64.8962 12.9229 64.8921C12.6881 64.9152 12.451 64.8851 12.2293 64.8038C12.0077 64.7226 11.8071 64.5924 11.6425 64.4229C11.4779 64.2533 11.3535 64.0488 11.2785 63.8245C11.2035 63.6002 11.1799 63.3619 11.2093 63.1272V59.5658H10.0774V58.6913H11.2093V56.8161L12.0897 56.2803H12.2233V58.6913H13.9998V59.5658H12.2233V62.8199C12.2233 63.663 12.4513 63.9466 13.1195 63.9466C13.3789 63.9371 13.6334 63.8727 13.8662 63.7575L13.9763 63.8127L14.0156 64.703Z" fill="#313C52"/>
<path d="M16.075 61.8509V61.906C16.0562 62.176 16.0941 62.4469 16.1864 62.7012C16.2787 62.9554 16.4233 63.1874 16.6108 63.3821C16.7983 63.5767 17.0246 63.7297 17.2749 63.8311C17.5252 63.9324 17.794 63.9799 18.0638 63.9704C18.4392 63.971 18.8075 63.8676 19.128 63.6715C19.4484 63.4755 19.7085 63.1944 19.8796 62.8594H19.9896L20.7207 63.3479C20.3815 63.9483 19.8505 64.4168 19.2134 64.678C18.5762 64.9391 17.8699 64.9777 17.2082 64.7876C16.5465 64.5974 15.9679 64.1896 15.5656 63.6297C15.1632 63.0698 14.9606 62.3905 14.9903 61.7012C14.9903 59.7472 16.2165 58.4629 17.9537 58.4629C19.6909 58.4629 20.8071 59.629 20.8071 61.6539C20.8142 61.7273 20.8142 61.8012 20.8071 61.8745L16.075 61.8509ZM16.075 61.063H19.6831C19.6847 60.8344 19.6392 60.6079 19.5495 60.3978C19.4599 60.1876 19.3279 59.9982 19.1619 59.8414C18.996 59.6847 18.7995 59.5639 18.5849 59.4867C18.3702 59.4095 18.142 59.3774 17.9144 59.3926C17.465 59.3887 17.0306 59.5542 16.6971 59.8563C16.3637 60.1584 16.1557 60.575 16.1144 61.0236L16.075 61.063Z" fill="#313C52"/>
<path d="M22.5364 58.6914H23.4482V59.9127C23.581 59.4994 23.8382 59.1375 24.1844 58.8765C24.5306 58.6155 24.9489 58.4683 25.3819 58.4551C25.6622 58.4577 25.9339 58.5523 26.1554 58.7245C26.3769 58.8967 26.536 59.137 26.6082 59.4084L25.7435 59.9127H25.6335C25.5925 59.7673 25.503 59.6403 25.3801 59.5528C25.2571 59.4654 25.1079 59.4228 24.9575 59.4321C24.2579 59.4321 23.5504 60.3382 23.5504 61.8904V64.6401H22.5364V58.6914Z" fill="#313C52"/>
<path d="M28.8249 58.691V59.7547C29.0327 59.3598 29.3435 59.0288 29.7242 58.7971C30.1049 58.5653 30.5412 58.4415 30.9866 58.4389C31.2984 58.4111 31.6125 58.4541 31.9054 58.5647C32.1984 58.6754 32.4627 58.8508 32.6787 59.0779C32.8947 59.305 33.0569 59.578 33.1532 59.8766C33.2494 60.1752 33.2773 60.4917 33.2347 60.8026V64.6397H32.205V61.2359C32.205 59.9516 31.7176 59.3922 30.6957 59.3922C29.5559 59.3922 28.8092 60.3298 28.8092 61.6693V64.6397H27.7952V58.691H28.8249Z" fill="#313C52"/>
<path d="M40.3957 63.9308V64.7187C40.125 64.8109 39.8406 64.8562 39.5547 64.8526C39.435 64.8637 39.3144 64.8494 39.2007 64.8107C39.0869 64.7721 38.9826 64.7098 38.8944 64.6281C38.8062 64.5464 38.7361 64.447 38.6887 64.3364C38.6413 64.2257 38.6176 64.1063 38.6192 63.986C38.3785 64.2647 38.0819 64.4894 37.7487 64.6455C37.4155 64.8017 37.0533 64.8857 36.6855 64.892C36.4609 64.916 36.2338 64.8912 36.0196 64.8192C35.8055 64.7473 35.6093 64.63 35.4444 64.4752C35.2796 64.3204 35.1499 64.1318 35.0643 63.9223C34.9787 63.7128 34.9391 63.4873 34.9483 63.2611C34.9483 62.1659 35.9938 61.3859 38.6035 61.0392V60.7004C38.6035 59.8022 38.2262 59.4003 37.5345 59.4003C37.1814 59.4143 36.8375 59.5177 36.5351 59.701C36.2327 59.8842 35.9815 60.1413 35.8051 60.4483H35.7029L34.9955 59.9755C35.2612 59.5189 35.6407 59.1394 36.0968 58.8742C36.553 58.609 37.07 58.4672 37.5974 58.4627C37.867 58.4336 38.1398 58.4648 38.396 58.5542C38.6521 58.6436 38.8853 58.789 39.0786 58.9797C39.2719 59.1704 39.4205 59.4018 39.5137 59.6572C39.6069 59.9125 39.6424 60.1854 39.6175 60.4561V63.6078C39.6175 63.8756 39.6961 63.9544 39.9241 63.9544C40.0578 63.9509 40.1891 63.9186 40.3093 63.8599L40.3957 63.9308ZM38.5799 63.2847V61.8113C36.6934 62.1186 35.9938 62.5362 35.9938 63.2296C35.9938 63.7259 36.3082 64.0175 36.9056 64.0175C37.2193 64.0131 37.5289 63.946 37.8164 63.8202C38.1039 63.6944 38.3635 63.5123 38.5799 63.2847Z" fill="#313C52"/>
<path d="M44.9471 64.703C44.5976 64.8328 44.2272 64.8969 43.8545 64.8921C43.6196 64.9152 43.3825 64.8851 43.1609 64.8038C42.9392 64.7226 42.7386 64.5924 42.574 64.4229C42.4094 64.2533 42.285 64.0488 42.21 63.8245C42.135 63.6002 42.1114 63.3619 42.1408 63.1272V59.5658H41.0089V58.6913H42.1408V56.8161L43.0291 56.2803H43.1627V58.6913H44.9392V59.5658H43.1627V62.8199C43.1627 63.663 43.3907 63.9466 44.0588 63.9466C44.3181 63.9362 44.5725 63.8718 44.8056 63.7575L44.9078 63.8127L44.9471 64.703Z" fill="#313C52"/>
<path d="M46.2362 55.8709C46.236 55.6686 46.3134 55.4739 46.4524 55.3273C46.5914 55.1806 46.7814 55.0931 46.983 55.083C47.1914 55.083 47.3914 55.166 47.5388 55.3138C47.6862 55.4615 47.769 55.6619 47.769 55.8709C47.7173 56.0285 47.6173 56.1658 47.4832 56.2631C47.3491 56.3604 47.1878 56.4128 47.0223 56.4128C46.8567 56.4128 46.6954 56.3604 46.5613 56.2631C46.4272 56.1658 46.3272 56.0285 46.2755 55.8709H46.2362ZM46.472 58.6916H47.486V64.6403H46.472V58.6916Z" fill="#313C52"/>
<path d="M49.1604 61.6694C49.1541 61.0245 49.3392 60.3923 49.6922 59.853C50.0451 59.3137 50.5499 58.8918 51.1425 58.6406C51.7352 58.3895 52.3889 58.3205 53.0207 58.4425C53.6525 58.5645 54.2339 58.8719 54.6911 59.3257C55.1482 59.7795 55.4606 60.3593 55.5884 60.9913C55.7162 61.6234 55.6538 62.2793 55.409 62.8757C55.1643 63.4722 54.7482 63.9823 54.2137 64.3412C53.6791 64.7002 53.0502 64.8919 52.4068 64.8919C51.9794 64.9059 51.5536 64.8324 51.1554 64.6759C50.7573 64.5193 50.3952 64.283 50.0913 63.9813C49.7874 63.6797 49.5481 63.3191 49.3881 62.9215C49.228 62.524 49.1505 62.0979 49.1604 61.6694ZM54.5842 61.6694C54.5657 61.2422 54.4225 60.8299 54.1723 60.4837C53.9221 60.1374 53.5759 59.8724 53.1768 59.7216C52.7777 59.5709 52.3431 59.5409 51.9271 59.6355C51.5112 59.7301 51.1321 59.9451 50.8369 60.2537C50.5418 60.5624 50.3436 60.9511 50.2669 61.3717C50.1903 61.7923 50.2385 62.2262 50.4058 62.6195C50.573 63.0128 50.8518 63.3483 51.2075 63.5841C51.5632 63.82 51.9803 63.946 52.4068 63.9464C52.7002 63.9445 52.9903 63.8836 53.2598 63.7673C53.5293 63.651 53.7728 63.4816 53.9758 63.2693C54.1788 63.057 54.3373 62.806 54.4418 62.5312C54.5463 62.2563 54.5947 61.9633 54.5842 61.6694Z" fill="#313C52"/>
<path d="M58.3417 58.691V59.7547C58.5494 59.3598 58.8602 59.0288 59.2409 58.7971C59.6216 58.5653 60.0579 58.4415 60.5033 58.4389C60.8152 58.4111 61.1292 58.4541 61.4222 58.5647C61.7151 58.6754 61.9795 58.8508 62.1955 59.0779C62.4115 59.305 62.5737 59.578 62.6699 59.8766C62.7662 60.1752 62.7941 60.4917 62.7515 60.8026V64.6397H61.7375V61.2359C61.7375 59.9516 61.2501 59.3922 60.2204 59.3922C59.1906 59.3922 58.3417 60.3298 58.3417 61.6693V64.6397H57.3276V58.691H58.3417Z" fill="#313C52"/>
<path d="M69.9283 63.9308V64.7187C69.6575 64.8109 69.3731 64.8562 69.0872 64.8526C68.9657 64.8673 68.8425 64.8557 68.7259 64.8186C68.6093 64.7816 68.502 64.7199 68.4111 64.6378C68.3203 64.5557 68.248 64.455 68.1992 64.3426C68.1504 64.2302 68.1262 64.1086 68.1282 63.986C67.8848 64.2676 67.5844 64.4941 67.2469 64.6504C66.9094 64.8066 66.5426 64.889 66.1709 64.892C65.9463 64.916 65.7191 64.8912 65.505 64.8192C65.2908 64.7473 65.0946 64.63 64.9298 64.4752C64.7649 64.3204 64.6353 64.1318 64.5497 63.9223C64.4641 63.7128 64.4245 63.4873 64.4337 63.2611C64.4337 62.1659 65.4791 61.3859 68.081 61.0392V60.7004C68.081 59.8022 67.7116 59.4003 67.012 59.4003C66.6602 59.4156 66.318 59.5197 66.017 59.7028C65.7161 59.886 65.4662 60.1424 65.2905 60.4483H65.1883L64.4808 59.9755C64.7465 59.5189 65.126 59.1394 65.5822 58.8742C66.0383 58.609 66.5554 58.4672 67.0827 58.4627C67.3524 58.4336 67.6252 58.4648 67.8813 58.5542C68.1375 58.6436 68.3706 58.789 68.5639 58.9797C68.7572 59.1704 68.9059 59.4018 68.9991 59.6572C69.0923 59.9125 69.1277 60.1854 69.1029 60.4561V63.6078C69.1029 63.8756 69.1815 63.9544 69.4094 63.9544C69.5431 63.9509 69.6744 63.9186 69.7946 63.8599L69.9283 63.9308ZM68.1282 63.2847V61.8113C66.2495 62.1186 65.5499 62.5362 65.5499 63.2296C65.5499 63.7259 65.8564 64.0175 66.4617 64.0175C66.7746 64.0156 67.0839 63.9497 67.3705 63.8237C67.6571 63.6977 67.9149 63.5143 68.1282 63.2847Z" fill="#313C52"/>
<path d="M71.3589 54.8223H72.3729V64.6396H71.3589V54.8223Z" fill="#313C52"/>
<path d="M11.1936 78.988L11.9797 78.4365L12.2076 78.4917C12.3834 78.934 12.6882 79.3128 13.0824 79.5785C13.4765 79.8442 13.9415 79.9844 14.4165 79.9808C14.6454 79.9968 14.8752 79.9666 15.0922 79.8919C15.3092 79.8172 15.5091 79.6995 15.6799 79.5459C15.8507 79.3924 15.989 79.206 16.0866 78.9978C16.1842 78.7896 16.2391 78.5639 16.248 78.3341C16.248 77.4753 15.8235 76.9001 14.1099 76.191C12.1683 75.3715 11.5316 74.5285 11.5316 73.3072C11.5316 72.086 12.5614 70.9435 14.3379 70.9435C14.883 70.9146 15.4252 71.0405 15.9022 71.3067C16.3792 71.5729 16.7715 71.9687 17.0341 72.4484L16.248 72.9842L16.02 72.929C15.8506 72.6191 15.5982 72.3627 15.2913 72.1887C14.9844 72.0147 14.6351 71.93 14.2828 71.9442C13.2531 71.9442 12.6557 72.5193 12.6557 73.2915C12.6557 74.0636 13.0409 74.4339 14.7073 75.1982C16.8847 76.191 17.4192 77.0025 17.4192 78.3498C17.4014 78.7209 17.3095 79.0846 17.1491 79.4195C16.9887 79.7544 16.763 80.0537 16.4853 80.2997C16.2076 80.5458 15.8836 80.7335 15.5323 80.852C15.181 80.9704 14.8096 81.0171 14.44 80.9893C13.7599 81.0273 13.0844 80.8559 12.5042 80.4982C11.9239 80.1405 11.4666 79.6136 11.1936 78.988Z" fill="#313C52"/>
<path d="M20.1783 70.8955V75.8278C20.3873 75.4323 20.6995 75.101 21.0816 74.8693C21.4636 74.6376 21.9013 74.5141 22.3478 74.512C23.7784 74.512 24.5881 75.3551 24.5881 76.8757V80.7207H23.5819V77.3091C23.5819 76.0248 23.1024 75.4654 22.0727 75.4654C21.043 75.4654 20.1783 76.403 20.1783 77.7424V80.7128H19.1721V70.8955H20.1783Z" fill="#313C52"/>
<path d="M26.5217 71.9442C26.5217 71.7352 26.6045 71.5348 26.752 71.387C26.8994 71.2393 27.0993 71.1562 27.3078 71.1562C27.5163 71.1562 27.7162 71.2393 27.8636 71.387C28.011 71.5348 28.0939 71.7352 28.0939 71.9442C28.0441 72.1047 27.9444 72.2451 27.8093 72.3449C27.6743 72.4446 27.5109 72.4984 27.3432 72.4984C27.1754 72.4984 27.0121 72.4446 26.877 72.3449C26.7419 72.2451 26.6422 72.1047 26.5925 71.9442H26.5217ZM26.7654 74.7649H27.7794V80.7136H26.7654V74.7649Z" fill="#313C52"/>
<path d="M29.9412 74.7648H30.963V75.8285C31.1889 75.4284 31.5168 75.0956 31.9133 74.8644C32.3097 74.6332 32.7604 74.5118 33.219 74.5127C34.8619 74.5127 35.9939 75.7812 35.9939 77.6643C35.9939 79.5474 34.7912 80.9263 33.1404 80.9263C32.7032 80.9239 32.2737 80.8098 31.8927 80.5948C31.5117 80.3797 31.1917 80.0707 30.963 79.6971V83.6367H29.9412V74.7648ZM34.9169 77.7037C34.9169 76.2934 34.2095 75.4661 33.0068 75.4661C32.7167 75.4684 32.4301 75.5306 32.165 75.6488C31.8998 75.7669 31.6618 75.9385 31.4657 76.1528C31.2695 76.3671 31.1195 76.6196 31.0249 76.8946C30.9303 77.1695 30.8932 77.461 30.9159 77.751C30.8848 78.0386 30.9148 78.3296 31.004 78.6047C31.0932 78.8799 31.2395 79.133 31.4333 79.3474C31.6272 79.5617 31.8641 79.7325 32.1285 79.8485C32.393 79.9645 32.6789 80.023 32.9675 80.0202C34.178 80.0202 34.9169 79.1298 34.9169 77.7037Z" fill="#313C52"/>
<path d="M37.6682 74.7648H38.6822V75.8285C38.9081 75.4284 39.236 75.0956 39.6325 74.8644C40.0289 74.6332 40.4796 74.5118 40.9382 74.5127C42.5811 74.5127 43.7209 75.7812 43.7209 77.6643C43.7209 79.5474 42.5182 80.9263 40.8596 80.9263C40.4225 80.9232 39.9933 80.8088 39.6124 80.5938C39.2315 80.3788 38.9115 80.0702 38.6822 79.6971V83.6367H37.6682V74.7648ZM42.6361 77.7037C42.6361 76.2934 41.9287 75.4661 40.726 75.4661C40.4365 75.4695 40.1508 75.5325 39.8866 75.6511C39.6224 75.7697 39.3853 75.9414 39.19 76.1557C38.9947 76.3699 38.8454 76.622 38.7513 76.8964C38.6572 77.1708 38.6203 77.4617 38.6429 77.751C38.6119 78.038 38.6417 78.3282 38.7305 78.6028C38.8192 78.8774 38.9648 79.1301 39.1578 79.3444C39.3508 79.5586 39.5867 79.7296 39.8502 79.8461C40.1137 79.9625 40.3987 80.0218 40.6867 80.0202C41.9051 80.0202 42.6361 79.1298 42.6361 77.7037Z" fill="#313C52"/>
<path d="M45.1515 71.9442C45.1512 71.7418 45.2286 71.5472 45.3677 71.4005C45.5067 71.2538 45.6967 71.1664 45.8983 71.1562C46.1067 71.1562 46.3067 71.2393 46.4541 71.387C46.6015 71.5348 46.6843 71.7352 46.6843 71.9442C46.6326 72.1018 46.5326 72.2391 46.3985 72.3364C46.2644 72.4337 46.1031 72.486 45.9376 72.486C45.772 72.486 45.6107 72.4337 45.4766 72.3364C45.3425 72.2391 45.2425 72.1018 45.1908 71.9442H45.1515ZM45.3952 74.7649H46.4092V80.7136H45.3952V74.7649Z" fill="#313C52"/>
<path d="M49.5848 74.7648V75.8285C49.7939 75.433 50.1061 75.1017 50.4881 74.87C50.8702 74.6383 51.3078 74.5148 51.7544 74.5127C53.185 74.5127 53.9946 75.3558 53.9946 76.8764V80.7214H52.9806V77.3098C52.9806 76.0255 52.5011 75.4661 51.4714 75.4661C50.4416 75.4661 49.5848 76.4037 49.5848 77.7431V80.7135H48.5708V74.7648H49.5848Z" fill="#313C52"/>
<path d="M55.2681 81.856C55.2681 81.1705 55.8026 80.6347 56.6673 80.3669C56.5079 80.3042 56.3702 80.1962 56.2711 80.0563C56.1719 79.9163 56.1157 79.7505 56.1092 79.5789C56.1092 79.0904 56.4314 78.791 57.1782 78.5941C56.7626 78.4696 56.3985 78.2134 56.1406 77.8639C55.8826 77.5145 55.7447 77.0905 55.7476 76.6558C55.7476 75.4109 56.8402 74.5127 58.3416 74.5127C58.7684 74.5114 59.1909 74.5972 59.5836 74.7648H61.4387V75.5527L61.3208 75.6631L60.5347 75.5843C60.7719 75.9235 60.8983 76.3282 60.8963 76.7425C60.8963 77.8456 60.1102 78.6098 58.7739 78.7674C57.4376 78.925 57.131 79.0904 57.131 79.4135C57.131 79.7365 57.4769 79.7996 58.6246 79.9493C60.574 80.2014 61.4151 80.7372 61.4151 81.8324C61.4151 83.0694 60.2596 83.8179 58.3573 83.8179C56.455 83.8179 55.2681 83.0615 55.2681 81.856ZM60.3539 81.856C60.3539 81.2414 59.6464 80.9341 58.3809 80.816L57.8149 80.7451C56.8559 80.9342 56.345 81.2966 56.345 81.8324C56.345 82.5021 57.1782 82.9591 58.3966 82.9591C59.615 82.9591 60.3539 82.5494 60.3539 81.8245V81.856ZM59.8901 76.7031C59.8901 75.9152 59.277 75.4109 58.318 75.4109C57.359 75.4109 56.7459 75.9073 56.7459 76.7031C56.7459 77.4989 57.3511 77.9716 58.318 77.9716C59.2848 77.9716 59.8901 77.4437 59.8901 76.6716V76.7031Z" fill="#313C52"/>
<path d="M116.023 56.8076H117.131V60.9756H122.366V56.8076H123.475V66.2625H122.366V61.992H117.131V66.294H116.023V56.8076Z" fill="#313C52"/>
<path d="M130.746 65.5856V66.3735C130.475 66.4657 130.191 66.511 129.905 66.5074C129.785 66.5172 129.665 66.5021 129.552 66.463C129.439 66.4238 129.335 66.3615 129.247 66.2801C129.159 66.1986 129.089 66.0997 129.041 65.9896C128.994 65.8796 128.969 65.7608 128.969 65.6407C128.728 65.923 128.429 66.15 128.093 66.3063C127.757 66.4626 127.391 66.5447 127.02 66.5468C126.795 66.5708 126.568 66.5459 126.354 66.474C126.14 66.4021 125.944 66.2847 125.779 66.1299C125.614 65.9752 125.484 65.7866 125.399 65.5771C125.313 65.3676 125.274 65.1421 125.283 64.9158C125.283 63.8207 126.328 63.0406 128.93 62.6939V62.3158C128.93 61.4175 128.561 61.0157 127.861 61.0157C127.509 61.031 127.167 61.135 126.866 61.3182C126.565 61.5014 126.315 61.7578 126.14 62.0636H126.03L125.322 61.5909C125.59 61.1347 125.971 60.7558 126.429 60.4907C126.886 60.2257 127.404 60.0835 127.932 60.0781C128.201 60.0487 128.474 60.0799 128.73 60.1694C128.985 60.2588 129.218 60.4043 129.411 60.5952C129.604 60.7861 129.751 61.0177 129.844 61.273C129.936 61.5284 129.97 61.8012 129.944 62.0715V65.2231C129.944 65.491 130.031 65.5698 130.251 65.5698C130.387 65.5671 130.521 65.5349 130.644 65.4753L130.746 65.5856ZM128.93 64.9395V63.4661C127.044 63.7734 126.352 64.191 126.352 64.8843C126.352 65.3807 126.658 65.6722 127.264 65.6722C127.577 65.6704 127.886 65.6045 128.172 65.4785C128.459 65.3525 128.717 65.169 128.93 64.9395Z" fill="#313C52"/>
<path d="M132.177 60.3459H133.191V61.4096C133.418 61.0093 133.748 60.6767 134.145 60.4456C134.543 60.2145 134.995 60.0931 135.454 60.0938C137.097 60.0938 138.229 61.3623 138.229 63.2454C138.229 65.1285 137.027 66.5073 135.368 66.5073C134.931 66.5035 134.502 66.3888 134.121 66.1738C133.741 65.9589 133.42 65.6508 133.191 65.2782V69.2177H132.177V60.3459ZM137.152 63.2848C137.152 61.8744 136.437 61.0471 135.242 61.0471C134.952 61.0495 134.665 61.1117 134.4 61.2298C134.135 61.3479 133.897 61.5195 133.701 61.7339C133.505 61.9482 133.355 62.2007 133.26 62.4756C133.166 62.7506 133.129 63.0421 133.151 63.332C133.12 63.619 133.15 63.9093 133.239 64.1839C133.328 64.4585 133.473 64.7112 133.666 64.9254C133.859 65.1397 134.095 65.3106 134.358 65.4271C134.622 65.5436 134.907 65.6029 135.195 65.6012C136.413 65.6012 137.152 64.7109 137.152 63.2848Z" fill="#313C52"/>
<path d="M139.904 60.3459H140.918V61.4096C141.143 61.0094 141.471 60.6767 141.868 60.4454C142.264 60.2142 142.715 60.0928 143.174 60.0938C144.816 60.0938 145.956 61.3623 145.956 63.2454C145.956 65.1285 144.754 66.5073 143.095 66.5073C142.658 66.5043 142.229 66.3898 141.848 66.1748C141.467 65.9598 141.147 65.6513 140.918 65.2782V69.2177H139.904V60.3459ZM144.871 63.2848C144.871 61.8744 144.164 61.0471 142.961 61.0471C142.672 61.0494 142.385 61.1116 142.121 61.2298C141.856 61.348 141.618 61.5198 141.423 61.7342C141.227 61.9487 141.078 62.2013 140.984 62.4762C140.891 62.7512 140.854 63.0425 140.878 63.332C140.847 63.619 140.877 63.9093 140.966 64.1839C141.055 64.4585 141.2 64.7112 141.393 64.9254C141.586 65.1397 141.822 65.3106 142.086 65.4271C142.349 65.5436 142.634 65.6029 142.922 65.6012C144.14 65.6012 144.871 64.7109 144.871 63.2848Z" fill="#313C52"/>
<path d="M147.387 57.5486C147.387 57.3463 147.464 57.1517 147.603 57.005C147.742 56.8583 147.932 56.7709 148.134 56.7607C148.335 56.7709 148.525 56.8583 148.664 57.005C148.803 57.1517 148.881 57.3463 148.88 57.5486C148.829 57.7063 148.729 57.8435 148.595 57.9408C148.46 58.0381 148.299 58.0905 148.134 58.0905C147.968 58.0905 147.807 58.0381 147.673 57.9408C147.539 57.8435 147.439 57.7063 147.387 57.5486ZM147.623 60.3694H148.645V66.2944H147.623V60.3694Z" fill="#313C52"/>
<path d="M151.82 60.3456V61.4092C152.029 61.0137 152.342 60.6825 152.724 60.4507C153.106 60.219 153.543 60.0955 153.99 60.0934C154.301 60.0669 154.614 60.1109 154.906 60.2221C155.198 60.3333 155.461 60.5088 155.677 60.7358C155.892 60.9628 156.053 61.2353 156.149 61.5333C156.245 61.8313 156.272 62.147 156.23 62.4572V66.2943H155.216V62.8905C155.216 61.6062 154.737 61.0468 153.707 61.0468C152.677 61.0468 151.82 61.9844 151.82 63.3239V66.2943H150.806V60.3456H151.82Z" fill="#313C52"/>
<path d="M158.997 63.5051V63.5602C158.978 63.8301 159.016 64.101 159.108 64.3553C159.201 64.6096 159.345 64.8416 159.533 65.0363C159.72 65.2309 159.947 65.3839 160.197 65.4852C160.447 65.5866 160.716 65.634 160.986 65.6245C161.362 65.6257 161.732 65.5226 162.054 65.3266C162.376 65.1305 162.637 64.8492 162.809 64.5136H162.912L163.651 65.01C163.387 65.4957 162.996 65.8996 162.519 66.1775C162.042 66.4554 161.498 66.5966 160.946 66.5858C160.53 66.5959 160.117 66.5183 159.732 66.358C159.348 66.1977 159.002 65.9583 158.716 65.6552C158.43 65.3521 158.21 64.9922 158.072 64.5987C157.934 64.2052 157.879 63.787 157.912 63.3711C157.912 61.4171 159.146 60.1328 160.884 60.1328C162.621 60.1328 163.729 61.2989 163.729 63.2844C163.736 63.3578 163.736 63.4317 163.729 63.5051H158.997ZM159.036 62.7171H162.644C162.653 62.4857 162.612 62.255 162.526 62.0402C162.44 61.8253 162.309 61.631 162.143 61.4698C161.977 61.3087 161.779 61.1842 161.562 61.1046C161.345 61.0249 161.114 60.9918 160.884 61.0074C160.421 60.9959 159.971 61.1627 159.628 61.4735C159.284 61.7842 159.072 62.2152 159.036 62.6778V62.7171Z" fill="#313C52"/>
<path d="M164.877 65.2465L165.663 64.7028H165.734C165.872 64.9912 166.09 65.234 166.362 65.4028C166.633 65.5717 166.947 65.6595 167.266 65.6562C167.99 65.6562 168.446 65.3252 168.446 64.8683C168.446 64.4113 168.241 64.1591 167.078 63.7416C165.506 63.1664 165.089 62.5991 165.089 61.7954C165.089 60.9918 165.875 60.1251 167.188 60.1251C167.627 60.0954 168.065 60.2 168.444 60.425C168.823 60.6501 169.125 60.9851 169.31 61.3857L168.618 61.8663H168.508C168.405 61.5978 168.221 61.368 167.981 61.2086C167.742 61.0492 167.459 60.9679 167.172 60.976C166.512 60.976 166.142 61.3148 166.142 61.7639C166.142 62.213 166.3 62.41 167.518 62.867C169.043 63.4421 169.499 63.9464 169.499 64.8446C169.499 65.7428 168.611 66.5859 167.266 66.5859C166.783 66.6091 166.303 66.4959 165.88 66.2591C165.458 66.0224 165.11 65.6715 164.877 65.2465Z" fill="#313C52"/>
<path d="M170.474 65.2468L171.26 64.7032H171.33C171.47 64.991 171.688 65.2333 171.959 65.402C172.23 65.5707 172.544 65.659 172.863 65.6565C173.586 65.6565 174.042 65.3256 174.042 64.8686C174.042 64.4116 173.838 64.1595 172.682 63.7419C171.11 63.1667 170.686 62.5994 170.686 61.7958C170.686 60.9921 171.472 60.1254 172.785 60.1254C173.224 60.0946 173.663 60.1987 174.042 60.4239C174.421 60.6491 174.723 60.9847 174.907 61.3861L174.215 61.8667H174.105C173.992 61.6031 173.801 61.3807 173.558 61.2298C173.315 61.0789 173.031 61.0069 172.745 61.0236C172.093 61.0236 171.715 61.3624 171.715 61.8115C171.715 62.2606 171.881 62.4576 173.091 62.9146C174.616 63.4898 175.072 63.994 175.072 64.8923C175.072 65.7905 174.192 66.6335 172.84 66.6335C172.355 66.6478 171.877 66.5254 171.458 66.2802C171.04 66.035 170.699 65.6769 170.474 65.2468Z" fill="#313C52"/>
<path d="M114.506 77.64C114.482 76.9788 114.594 76.3198 114.834 75.7036C115.074 75.0874 115.438 74.5271 115.903 74.0574C116.368 73.5878 116.924 73.2187 117.537 72.973C118.15 72.7273 118.806 72.6102 119.466 72.6289C120.363 72.5772 121.256 72.7833 122.04 73.2229C122.824 73.6626 123.466 74.3176 123.891 75.1108L123.153 75.6702L122.925 75.6151C122.592 75.0062 122.094 74.5036 121.49 74.165C120.885 73.8263 120.197 73.6653 119.505 73.7005C118.992 73.6924 118.483 73.7897 118.009 73.9863C117.535 74.183 117.106 74.4749 116.749 74.8439C116.392 75.213 116.114 75.6515 115.932 76.1324C115.751 76.6133 115.669 77.1263 115.693 77.64C115.664 78.147 115.739 78.6546 115.913 79.1316C116.086 79.6086 116.356 80.0449 116.704 80.4139C117.052 80.7828 117.472 81.0765 117.937 81.2769C118.403 81.4774 118.904 81.5804 119.411 81.5795C121.187 81.5795 122.885 80.5868 122.964 78.554V78.4673H120.087V77.506H123.939V82.3674H122.901V81.7529C122.896 81.4632 122.93 81.1742 123.003 80.894C122.599 81.4623 122.059 81.9196 121.433 82.2239C120.807 82.5281 120.114 82.6696 119.419 82.6353C118.76 82.664 118.102 82.5538 117.489 82.3119C116.875 82.0701 116.319 81.7019 115.856 81.2311C115.393 80.7604 115.033 80.1976 114.801 79.579C114.568 78.9605 114.468 78.2999 114.506 77.64Z" fill="#313C52"/>
<path d="M130.447 82.3673V81.3352C130.241 81.7155 129.939 82.0345 129.57 82.26C129.201 82.4855 128.78 82.6095 128.348 82.6194C126.996 82.6194 126.21 81.7764 126.21 80.2084V76.458H127.224V79.9169C127.224 81.1461 127.696 81.7133 128.655 81.7133C129.614 81.7133 130.447 80.7994 130.447 79.4363V76.458H131.461V82.4067L130.447 82.3673Z" fill="#313C52"/>
<path d="M138.638 81.6587V82.4466C138.367 82.5388 138.083 82.5841 137.797 82.5805C137.677 82.5916 137.557 82.5773 137.443 82.5386C137.329 82.4999 137.225 82.4377 137.137 82.356C137.048 82.2743 136.978 82.1749 136.931 82.0642C136.884 81.9536 136.86 81.8342 136.862 81.7138C136.619 81.9949 136.32 82.2211 135.984 82.3773C135.648 82.5335 135.283 82.6162 134.912 82.6199C134.687 82.6439 134.46 82.619 134.246 82.5471C134.032 82.4752 133.836 82.3578 133.671 82.2031C133.506 82.0483 133.376 81.8597 133.291 81.6502C133.205 81.4407 133.166 81.2152 133.175 80.989C133.175 79.8938 134.212 79.1137 136.822 78.7671V78.3889C136.822 77.4906 136.445 77.0888 135.753 77.0888C135.401 77.1041 135.059 77.2081 134.758 77.3913C134.457 77.5745 134.207 77.8309 134.032 78.1367H133.922L133.214 77.664C133.481 77.2085 133.861 76.8298 134.317 76.5647C134.773 76.2997 135.289 76.1572 135.816 76.1512C136.086 76.1221 136.359 76.1533 136.615 76.2427C136.871 76.3321 137.104 76.4774 137.297 76.6682C137.491 76.8589 137.639 77.0903 137.732 77.3456C137.826 77.601 137.861 77.8739 137.836 78.1446V81.2962C137.836 81.5641 137.915 81.6429 138.143 81.6429C138.277 81.6401 138.408 81.6078 138.528 81.5484L138.638 81.6587ZM136.822 81.0126V79.5392C134.936 79.8465 134.244 80.2641 134.244 80.9574C134.244 81.4538 134.55 81.7453 135.148 81.7453C135.462 81.7441 135.773 81.6785 136.061 81.5525C136.349 81.4265 136.608 81.2427 136.822 81.0126Z" fill="#313C52"/>
<path d="M140.069 76.4582H140.98V77.6637C141.113 77.2504 141.37 76.8884 141.717 76.6275C142.063 76.3665 142.481 76.2193 142.914 76.2061C143.195 76.2082 143.468 76.3026 143.691 76.4747C143.914 76.6468 144.075 76.8873 144.148 77.1594L143.276 77.6637H143.166C143.125 77.5182 143.035 77.3913 142.912 77.3038C142.789 77.2164 142.64 77.1738 142.49 77.1831C141.79 77.1831 141.083 78.0892 141.083 79.6413V82.4305H140.069V76.4582Z" fill="#313C52"/>
<path d="M150.146 81.6587V82.4466C149.875 82.5388 149.591 82.5841 149.305 82.5805C149.185 82.5916 149.065 82.5773 148.951 82.5386C148.837 82.4999 148.733 82.4377 148.645 82.356C148.556 82.2743 148.486 82.1749 148.439 82.0642C148.392 81.9536 148.368 81.8342 148.369 81.7138C148.127 81.9949 147.828 82.2211 147.492 82.3773C147.156 82.5335 146.791 82.6162 146.42 82.6199C146.195 82.6439 145.968 82.619 145.754 82.5471C145.54 82.4752 145.344 82.3578 145.179 82.2031C145.014 82.0483 144.884 81.8597 144.799 81.6502C144.713 81.4407 144.674 81.2152 144.683 80.989C144.683 79.8938 145.72 79.1137 148.33 78.7671V78.3889C148.33 77.4906 147.953 77.0888 147.261 77.0888C146.908 77.1028 146.564 77.2062 146.262 77.3895C145.959 77.5727 145.708 77.8298 145.532 78.1367H145.43L144.722 77.664C144.988 77.2074 145.367 76.8279 145.823 76.5627C146.28 76.2975 146.797 76.1557 147.324 76.1512C147.594 76.1221 147.866 76.1533 148.123 76.2427C148.379 76.3321 148.612 76.4774 148.805 76.6682C148.999 76.8589 149.147 77.0903 149.24 77.3456C149.334 77.601 149.369 77.8739 149.344 78.1446V81.2962C149.344 81.5641 149.423 81.6429 149.651 81.6429C149.784 81.6394 149.916 81.6071 150.036 81.5484L150.146 81.6587ZM148.33 81.0126V79.5392C146.444 79.8465 145.752 80.2641 145.752 80.9574C145.752 81.4538 146.058 81.7453 146.656 81.7453C146.966 81.7379 147.271 81.6693 147.554 81.5436C147.837 81.4178 148.093 81.2374 148.307 81.0126H148.33Z" fill="#313C52"/>
<path d="M152.591 76.4589V77.4832C152.798 77.0883 153.109 76.7573 153.49 76.5256C153.871 76.2938 154.307 76.17 154.752 76.1674C155.064 76.1396 155.378 76.1826 155.671 76.2933C155.964 76.4039 156.228 76.5793 156.444 76.8064C156.66 77.0335 156.823 77.3065 156.919 77.6051C157.015 77.9037 157.043 78.2202 157 78.5311V82.3761H155.986V78.9723C155.986 77.688 155.507 77.1286 154.477 77.1286C153.447 77.1286 152.591 78.0662 152.591 79.4057V82.3761H151.577V76.4589H152.591Z" fill="#313C52"/>
<path d="M162.228 82.4305C161.875 82.5589 161.502 82.6229 161.127 82.6196C160.893 82.6415 160.657 82.6104 160.436 82.5286C160.216 82.4468 160.016 82.3164 159.852 82.1471C159.689 81.9777 159.565 81.7736 159.49 81.55C159.416 81.3263 159.392 81.0887 159.422 80.8547V77.2934H158.282V76.4582H159.422V74.5436L160.302 74.0078H160.436V76.4582H162.212V77.3328H160.436V80.5868C160.436 81.4299 160.664 81.7135 161.332 81.7135C161.604 81.7087 161.873 81.6441 162.118 81.5244L162.228 81.5796V82.4305Z" fill="#313C52"/>
<path d="M164.279 79.6101C164.262 79.8804 164.301 80.1515 164.394 80.4058C164.487 80.6601 164.632 80.8919 164.821 81.0864C165.009 81.281 165.235 81.4338 165.486 81.535C165.737 81.6363 166.006 81.6838 166.276 81.6744C166.651 81.6742 167.019 81.5704 167.339 81.3744C167.66 81.1784 167.92 80.8979 168.092 80.5634H168.194L168.933 81.0519C168.671 81.5371 168.281 81.9406 167.805 82.2186C167.33 82.4965 166.787 82.638 166.237 82.6278C165.821 82.6379 165.407 82.5603 165.023 82.4C164.638 82.2397 164.292 82.0003 164.006 81.6972C163.72 81.3941 163.5 81.0342 163.362 80.6407C163.224 80.2472 163.169 79.829 163.202 79.4131C163.202 77.4591 164.429 76.1748 166.166 76.1748C167.903 76.1748 169.011 77.3409 169.011 79.3658C169.018 79.4392 169.018 79.5131 169.011 79.5864L164.279 79.6101ZM164.327 78.8222H167.958C167.961 78.594 167.916 78.3677 167.828 78.1575C167.739 77.9473 167.608 77.7579 167.442 77.601C167.277 77.4441 167.081 77.3232 166.867 77.2459C166.652 77.1686 166.425 77.1366 166.197 77.1518C165.741 77.129 165.293 77.2819 164.945 77.5792C164.597 77.8765 164.376 78.2958 164.327 78.7513V78.8222Z" fill="#313C52"/>
<path d="M171.338 79.6101C171.319 79.88 171.357 80.1509 171.45 80.4052C171.542 80.6595 171.686 80.8915 171.874 81.0861C172.062 81.2808 172.288 81.4337 172.538 81.5351C172.788 81.6364 173.057 81.6839 173.327 81.6744C173.703 81.6759 174.071 81.5729 174.392 81.3767C174.712 81.1806 174.972 80.899 175.143 80.5634H175.253L175.992 81.0519C175.728 81.5377 175.337 81.9416 174.86 82.2195C174.383 82.4974 173.839 82.6386 173.288 82.6278C172.872 82.6379 172.458 82.5603 172.074 82.4C171.689 82.2397 171.343 82.0003 171.057 81.6972C170.771 81.3941 170.552 81.0342 170.413 80.6407C170.275 80.2472 170.22 79.829 170.253 79.4131C170.253 77.4591 171.488 76.1748 173.225 76.1748C174.962 76.1748 176.07 77.3409 176.07 79.3658C176.077 79.4392 176.077 79.5131 176.07 79.5864L171.338 79.6101ZM171.338 78.8222H174.946C174.949 78.594 174.904 78.3677 174.816 78.1575C174.727 77.9473 174.596 77.7579 174.43 77.601C174.265 77.4441 174.069 77.3232 173.855 77.2459C173.641 77.1686 173.413 77.1366 173.185 77.1518C172.741 77.1487 172.31 77.3102 171.977 77.6053C171.643 77.9004 171.43 78.3084 171.378 78.7513L171.338 78.8222Z" fill="#313C52"/>
<path d="M209.415 65.2784L210.201 64.7268L210.429 64.782C210.604 65.223 210.908 65.601 211.301 65.8666C211.693 66.1322 212.157 66.2732 212.63 66.2711C212.86 66.2904 213.092 66.2632 213.311 66.1911C213.53 66.119 213.733 66.0034 213.906 65.8512C214.08 65.6991 214.222 65.5135 214.322 65.3054C214.423 65.0974 214.481 64.8711 214.493 64.6402C214.493 63.7892 214.061 63.214 212.355 62.497C210.39 61.7091 209.722 60.8424 209.722 59.6369C209.722 58.4314 210.751 57.2732 212.528 57.2732C213.072 57.2392 213.615 57.3593 214.095 57.6199C214.574 57.8804 214.971 58.2708 215.24 58.7466L214.454 59.2824L214.226 59.2272C214.056 58.9173 213.804 58.6609 213.497 58.4869C213.19 58.3129 212.841 58.2282 212.489 58.2423C211.459 58.2423 210.854 58.8175 210.854 59.5897C210.854 60.3618 211.239 60.7321 212.913 61.4964C215.091 62.4813 215.625 63.3007 215.625 64.648C215.607 65.0191 215.515 65.3828 215.355 65.7177C215.195 66.0526 214.969 66.3519 214.691 66.5979C214.413 66.844 214.089 67.0317 213.738 67.1502C213.387 67.2686 213.015 67.3153 212.646 67.2875C211.967 67.3216 211.295 67.1475 210.718 66.7885C210.14 66.4296 209.686 65.9028 209.415 65.2784Z" fill="#313C52"/>
<path d="M218.408 57.1865V62.1188C218.615 61.7239 218.926 61.3929 219.307 61.1612C219.688 60.9295 220.124 60.8057 220.569 60.803C220.881 60.7752 221.195 60.8183 221.488 60.9289C221.781 61.0395 222.045 61.2149 222.261 61.442C222.478 61.6692 222.64 61.9422 222.736 62.2408C222.832 62.5394 222.86 62.8559 222.818 63.1667V67.0038H221.803V63.6001C221.803 62.3158 221.324 61.7564 220.294 61.7564C219.264 61.7564 218.408 62.694 218.408 64.0334V67.0038H217.394V57.1865H218.408Z" fill="#313C52"/>
<path d="M224.743 58.2342C224.743 58.0319 224.821 57.8372 224.96 57.6905C225.099 57.5439 225.289 57.4564 225.49 57.4463C225.692 57.4564 225.882 57.5439 226.021 57.6905C226.16 57.8372 226.237 58.0319 226.237 58.2342C226.185 58.3918 226.085 58.5291 225.951 58.6264C225.817 58.7237 225.656 58.7761 225.49 58.7761C225.325 58.7761 225.163 58.7237 225.029 58.6264C224.895 58.5291 224.795 58.3918 224.743 58.2342ZM224.979 61.0549H226.001V67.0036H224.979V61.0549Z" fill="#313C52"/>
<path d="M228.163 61.0549H229.177V62.1185C229.403 61.7184 229.731 61.3857 230.127 61.1544C230.523 60.9232 230.974 60.8018 231.433 60.8027C233.083 60.8027 234.215 62.0713 234.215 63.9938C234.215 65.9163 233.013 67.2557 231.354 67.2557C230.917 67.2526 230.488 67.1382 230.107 66.9232C229.726 66.7082 229.406 66.3997 229.177 66.0266V69.9267H228.163V61.0549ZM233.131 63.9938C233.131 62.5834 232.423 61.7561 231.221 61.7561C230.931 61.7595 230.645 61.8225 230.381 61.9411C230.117 62.0597 229.88 62.2315 229.685 62.4457C229.489 62.6599 229.34 62.912 229.246 63.1865C229.152 63.4609 229.115 63.7517 229.137 64.041C229.106 64.328 229.136 64.6183 229.225 64.8929C229.314 65.1675 229.459 65.4202 229.652 65.6344C229.845 65.8487 230.081 66.0196 230.345 66.1361C230.608 66.2526 230.893 66.3119 231.181 66.3102C232.415 66.3102 233.131 65.4278 233.131 63.9938Z" fill="#313C52"/>
<path d="M235.245 65.9554L236.031 65.4118H236.102C236.244 65.7064 236.468 65.9534 236.747 66.1226C237.026 66.2919 237.348 66.3762 237.674 66.3652C238.397 66.3652 238.853 66.0342 238.853 65.5772C238.853 65.1203 238.649 64.8681 237.485 64.4505C235.913 63.8754 235.497 63.3081 235.497 62.5044C235.497 61.7007 236.283 60.834 237.595 60.834C238.035 60.8044 238.473 60.9089 238.852 61.134C239.231 61.3591 239.533 61.6941 239.718 62.0947L239.026 62.5753H238.916C238.802 62.3124 238.611 62.0906 238.368 61.9399C238.125 61.7892 237.842 61.7167 237.556 61.7323C236.896 61.7323 236.526 62.0711 236.526 62.5202C236.526 62.9693 236.684 63.1662 237.902 63.6232C239.427 64.1984 239.875 64.7027 239.875 65.6009C239.875 66.4991 238.995 67.3422 237.643 67.3422C237.152 67.3663 236.665 67.2484 236.24 67.0025C235.815 66.7565 235.47 66.393 235.245 65.9554Z" fill="#313C52"/>
<path d="M245.252 58.2342C245.251 58.0319 245.329 57.8372 245.468 57.6905C245.607 57.5439 245.797 57.4564 245.998 57.4463C246.207 57.4463 246.407 57.5293 246.554 57.6771C246.702 57.8248 246.785 58.0252 246.785 58.2342C246.735 58.3948 246.635 58.5352 246.5 58.6349C246.365 58.7346 246.202 58.7884 246.034 58.7884C245.866 58.7884 245.703 58.7346 245.568 58.6349C245.433 58.5352 245.333 58.3948 245.283 58.2342H245.252ZM245.495 61.0549H246.509V67.0036H245.495V61.0549Z" fill="#313C52"/>
<path d="M249.709 61.0553V62.1189C249.917 61.724 250.227 61.393 250.608 61.1613C250.989 60.9296 251.425 60.8058 251.87 60.8031C252.182 60.7753 252.496 60.8184 252.789 60.929C253.082 61.0396 253.347 61.215 253.563 61.4422C253.779 61.6693 253.941 61.9423 254.037 62.2409C254.133 62.5395 254.161 62.856 254.119 63.1668V67.0039H253.097V63.6002C253.097 62.3159 252.617 61.7565 251.587 61.7565C250.558 61.7565 249.709 62.6941 249.709 64.0335V67.0039H248.687V61.0553H249.709Z" fill="#313C52"/>
<path d="M259.393 66.7595L261.5 64.64C263.386 62.7096 264.345 61.2363 264.345 59.952C264.362 59.7256 264.329 59.4983 264.25 59.2857C264.171 59.0731 264.047 58.8801 263.886 58.72C263.726 58.5599 263.533 58.4365 263.32 58.3581C263.108 58.2797 262.881 58.2482 262.655 58.2658C262.139 58.2441 261.634 58.4256 261.25 58.7716C260.865 59.1175 260.63 59.6005 260.596 60.1174L260.368 60.2356L259.527 60.1017C259.546 59.704 259.644 59.3142 259.815 58.9553C259.987 58.5963 260.229 58.2755 260.526 58.0118C260.824 57.7481 261.171 57.5469 261.548 57.42C261.924 57.2931 262.322 57.2431 262.718 57.2731C263.073 57.2509 263.429 57.3034 263.763 57.4272C264.097 57.5509 264.401 57.7432 264.656 57.9917C264.912 58.2402 265.112 58.5395 265.246 58.8702C265.379 59.201 265.442 59.556 265.43 59.9126C265.43 61.2993 264.644 62.749 263.072 64.4115L262.215 65.3097L261.508 66.0188C261.964 66.0188 262.231 66.0188 262.789 66.0188H265.304V67.0037H259.37L259.393 66.7595Z" fill="#313C52"/>
<path d="M270.83 64.9707H266.043V64.5925L271.42 57.3438H271.939V63.9464H273.063V64.9707H271.939V67.0035H270.83V64.9707ZM270.83 63.9464V61.89C270.8 61.0641 270.858 60.2373 271.003 59.4238C270.808 59.8135 270.579 60.1852 270.319 60.5348L267.788 63.9464H270.83Z" fill="#313C52"/>
<path d="M279.579 57.1865V62.1188C279.788 61.7233 280.1 61.392 280.483 61.1603C280.865 60.9286 281.302 60.8051 281.749 60.803C283.179 60.803 283.989 61.6461 283.989 63.1667V67.0038H282.975V63.6001C282.975 62.3158 282.496 61.7564 281.466 61.7564C280.436 61.7564 279.579 62.694 279.579 64.0334V67.0038H278.565V57.1865H279.579Z" fill="#313C52"/>
<path d="M286.119 61.0547H287.023V62.276C287.534 61.2438 288.147 60.8184 288.965 60.8184C289.245 60.8222 289.516 60.9174 289.737 61.0894C289.958 61.2614 290.118 61.5009 290.191 61.7717L289.326 62.276H289.216C289.174 62.1299 289.083 62.0027 288.958 61.9154C288.834 61.828 288.684 61.7857 288.532 61.7954C287.841 61.7954 287.133 62.7015 287.133 64.2536V67.0034H286.119V61.0547Z" fill="#313C52"/>
<path d="M290.702 65.9554L291.488 65.4118H291.551C291.694 65.7051 291.918 65.951 292.197 66.12C292.476 66.2891 292.797 66.3742 293.123 66.3652C293.846 66.3652 294.302 66.0342 294.302 65.5772C294.302 65.1203 294.098 64.8681 292.934 64.4505C291.362 63.8754 290.946 63.3081 290.946 62.5044C290.946 61.7007 291.732 60.834 293.044 60.834C293.484 60.8044 293.922 60.9089 294.301 61.134C294.68 61.3591 294.982 61.6941 295.167 62.0947L294.475 62.5753H294.365C294.251 62.3124 294.06 62.0906 293.817 61.9399C293.574 61.7892 293.291 61.7167 293.005 61.7323C292.345 61.7323 291.975 62.0711 291.975 62.5202C291.975 62.9693 292.133 63.1662 293.351 63.6232C294.876 64.1984 295.324 64.7027 295.324 65.6009C295.324 66.4991 294.444 67.3422 293.092 67.3422C292.602 67.3658 292.117 67.2475 291.693 67.0016C291.269 66.7556 290.925 66.3924 290.702 65.9554Z" fill="#313C52"/>
<path d="M215.664 83.0766L214.635 82.0287C214.276 82.445 213.83 82.7772 213.329 83.0019C212.827 83.2265 212.283 83.3381 211.734 83.3287C211.359 83.3591 210.981 83.3115 210.625 83.1888C210.269 83.0662 209.942 82.8712 209.664 82.616C209.387 82.3608 209.165 82.051 209.013 81.7059C208.86 81.3608 208.78 80.9878 208.778 80.6104C208.778 79.5152 209.368 78.6407 210.626 77.9631C210.281 77.6592 210.001 77.2893 209.801 76.8753C209.601 76.4613 209.486 76.0114 209.462 75.5521C209.453 75.2417 209.504 74.9324 209.613 74.6418C209.723 74.3513 209.888 74.0852 210.1 73.8587C210.528 73.4014 211.12 73.1333 211.746 73.1135C212.371 73.0936 212.979 73.3236 213.435 73.7529C213.891 74.1821 214.159 74.7755 214.179 75.4024C214.179 76.5527 213.55 77.4667 212.221 78.1443L214.532 80.508C214.939 79.734 215.206 78.8936 215.318 78.0261L215.429 77.9473H216.419C216.23 79.0998 215.839 80.2095 215.263 81.225L217.095 83.0766H215.664ZM213.935 81.3353L211.278 78.6328C210.868 78.7828 210.512 79.0532 210.257 79.4087C210.001 79.7642 209.859 80.1884 209.848 80.6262C209.847 80.8701 209.896 81.1115 209.994 81.335C210.091 81.5586 210.234 81.7594 210.413 81.9247C210.591 82.0899 210.803 82.2161 211.033 82.295C211.263 82.374 211.507 82.404 211.75 82.3832C212.168 82.3788 212.581 82.2828 212.958 82.1018C213.336 81.9207 213.669 81.6591 213.935 81.3353ZM210.476 75.4969C210.596 76.2558 210.967 76.9523 211.53 77.4746C212.748 76.797 213.102 76.1903 213.102 75.426C213.092 75.0728 212.943 74.7379 212.688 74.4948C212.432 74.2518 212.09 74.1205 211.738 74.1299C211.386 74.1393 211.051 74.2886 210.809 74.545C210.566 74.8013 210.436 75.1438 210.445 75.4969H210.476Z" fill="#313C52"/>
<path d="M227.542 73.5986L227.66 74.615H223.211V77.7036H227.337V78.7279H223.211V82.0607H227.699L227.581 83.0771H222.141V73.6223L227.542 73.5986Z" fill="#313C52"/>
<path d="M234.624 82.3677V83.1556C234.354 83.2478 234.069 83.2931 233.783 83.2895C233.664 83.3006 233.543 83.2863 233.429 83.2476C233.315 83.2089 233.211 83.1467 233.123 83.065C233.035 82.9832 232.965 82.8838 232.917 82.7732C232.87 82.6626 232.846 82.5432 232.848 82.4228C232.606 82.7039 232.307 82.9301 231.97 83.0863C231.634 83.2425 231.269 83.3252 230.898 83.3289C230.674 83.3529 230.447 83.328 230.232 83.2561C230.018 83.1842 229.822 83.0668 229.657 82.912C229.492 82.7573 229.363 82.5687 229.277 82.3592C229.191 82.1497 229.152 81.9242 229.161 81.6979C229.161 80.6027 230.199 79.8227 232.808 79.476V79.0978C232.808 78.1996 232.431 77.7978 231.739 77.7978C231.386 77.8125 231.043 77.9162 230.741 78.0994C230.438 78.2826 230.187 78.5393 230.01 78.8457H229.908L229.2 78.373C229.466 77.9164 229.846 77.5369 230.302 77.2717C230.758 77.0065 231.275 76.8647 231.802 76.8602C232.072 76.831 232.345 76.8623 232.601 76.9517C232.857 77.0411 233.09 77.1864 233.284 77.3772C233.477 77.5679 233.625 77.7993 233.719 78.0546C233.812 78.31 233.847 78.5829 233.822 78.8536V82.0052C233.822 82.2731 233.901 82.3519 234.129 82.3519C234.263 82.3483 234.394 82.3161 234.514 82.2573L234.624 82.3677ZM232.808 81.7216V80.2482C230.922 80.5633 230.23 80.9731 230.23 81.6743C230.23 82.1628 230.537 82.4622 231.134 82.4622C231.449 82.46 231.76 82.3931 232.048 82.2657C232.336 82.1384 232.595 81.9532 232.808 81.7216Z" fill="#313C52"/>
<path d="M235.56 82.029L236.346 81.4854H236.416C236.556 81.7732 236.774 82.0155 237.045 82.1842C237.317 82.3529 237.63 82.4412 237.949 82.4387C238.672 82.4387 239.128 82.1078 239.128 81.6508C239.128 81.1938 238.924 80.9417 237.768 80.5241C236.196 79.949 235.772 79.3817 235.772 78.5859C235.772 77.7901 236.558 76.9076 237.871 76.9076C238.31 76.8768 238.749 76.981 239.128 77.2062C239.507 77.4314 239.809 77.767 239.993 78.1683L239.301 78.6489H239.191C239.079 78.3853 238.887 78.1629 238.644 78.012C238.401 77.8612 238.117 77.7892 237.831 77.8059C237.179 77.8059 236.802 78.1447 236.802 78.5544C236.802 78.9641 236.959 79.2004 238.177 79.6574C239.702 80.2326 240.158 80.7447 240.158 81.6351C240.158 82.5254 239.278 83.3764 237.926 83.3764C237.445 83.3962 236.968 83.2805 236.55 83.0423C236.132 82.8041 235.789 82.453 235.56 82.029Z" fill="#313C52"/>
<path d="M243.334 82.4857L240.928 77.1279H242.092L243.86 81.3905L245.692 77.1279H246.84L242.768 85.9998H241.612L243.334 82.4857Z" fill="#313C52"/>
<path d="M258.969 82.8642L258.874 83.0769H257.758L254.802 78.8853H253.23V83.0769H252.122V73.6221H254.85C256.823 73.6221 257.947 74.4888 257.947 76.301C257.97 76.8736 257.786 77.4354 257.427 77.8818C257.069 78.3282 256.56 78.6289 255.997 78.7277L258.969 82.8642ZM253.238 77.8925H254.574C256.147 77.8925 256.83 77.4513 256.83 76.3167C256.83 75.1821 256.123 74.6227 254.574 74.6227H253.238V77.8925Z" fill="#313C52"/>
<path d="M260.714 80.2953V80.3426C260.695 80.6125 260.733 80.8834 260.825 81.1377C260.917 81.392 261.062 81.624 261.249 81.8186C261.437 82.0133 261.663 82.1662 261.913 82.2676C262.164 82.3689 262.433 82.4164 262.702 82.4069C263.078 82.4075 263.446 82.3041 263.767 82.108C264.087 81.912 264.347 81.6309 264.518 81.2959H264.628L265.359 81.7844C265.02 82.3848 264.489 82.8533 263.852 83.1145C263.215 83.3756 262.508 83.4142 261.847 83.2241C261.185 83.0339 260.606 82.6261 260.204 82.0662C259.802 81.5064 259.599 80.8271 259.629 80.1377C259.629 78.1837 260.863 76.8994 262.6 76.8994C264.337 76.8994 265.446 78.0655 265.446 80.051C265.453 80.1271 265.453 80.2035 265.446 80.2795L260.714 80.2953ZM260.753 79.4601H264.361C264.362 79.2322 264.317 79.0065 264.228 78.7969C264.139 78.5873 264.008 78.3983 263.842 78.2416C263.677 78.085 263.482 77.964 263.268 77.8863C263.054 77.8086 262.827 77.7757 262.6 77.7898C262.138 77.7784 261.69 77.9454 261.347 78.2564C261.005 78.5673 260.795 78.9983 260.761 79.4601H260.753Z" fill="#313C52"/>
<path d="M270.233 83.1474C269.882 83.2707 269.512 83.332 269.14 83.3286C268.905 83.3518 268.668 83.3216 268.447 83.2404C268.225 83.1591 268.024 83.0289 267.86 82.8594C267.695 82.6899 267.571 82.4854 267.496 82.2611C267.421 82.0368 267.397 81.7984 267.427 81.5637V78.0339H266.295V77.1278H267.427V75.2526L268.315 74.7168H268.441V77.1278H270.225V78.0339H268.441V81.2879C268.441 82.131 268.669 82.4146 269.337 82.4146C269.609 82.4098 269.878 82.3452 270.123 82.2255L270.225 82.2807L270.233 83.1474Z" fill="#313C52"/>
<path d="M275.995 83.0766V82.0445C275.789 82.4248 275.486 82.7438 275.117 82.9693C274.749 83.1948 274.328 83.3188 273.896 83.3288C272.544 83.3288 271.758 82.4857 271.758 80.9178V77.1279H272.772V80.5868C272.772 81.816 273.243 82.3833 274.202 82.3833C275.161 82.3833 275.995 81.4693 275.995 80.1062V77.1279H277.009V83.0766H275.995Z" fill="#313C52"/>
<path d="M279.178 77.1281H280.082V78.3336C280.593 77.3014 281.206 76.876 282.024 76.876C282.304 76.8799 282.575 76.975 282.796 77.147C283.017 77.319 283.177 77.5585 283.25 77.8293L282.385 78.3336H282.275C282.233 78.1875 282.142 78.0603 282.018 77.973C281.893 77.8856 281.743 77.8433 281.591 77.853C280.9 77.853 280.192 78.7591 280.192 80.3191V83.1004H279.178V77.1281Z" fill="#313C52"/>
<path d="M285.459 77.1285V78.1922C285.667 77.7973 285.977 77.4663 286.358 77.2346C286.739 77.0028 287.175 76.879 287.621 76.8764C287.932 76.8486 288.246 76.8916 288.539 77.0022C288.832 77.1129 289.097 77.2883 289.313 77.5154C289.529 77.7425 289.691 78.0155 289.787 78.3141C289.883 78.6127 289.911 78.9292 289.869 79.2401V83.0851H288.847V79.6813C288.847 78.397 288.367 77.8376 287.338 77.8376C286.308 77.8376 285.459 78.7752 285.459 80.1147V83.0851H284.437V77.1285H285.459Z" fill="#313C52"/>
<path d="M291.37 82.029L292.156 81.4854H292.227C292.366 81.7732 292.585 82.0155 292.856 82.1842C293.127 82.3529 293.441 82.4412 293.76 82.4387C294.483 82.4387 294.939 82.1078 294.939 81.6508C294.939 81.1938 294.734 80.9417 293.579 80.5241C292.007 79.949 291.582 79.3817 291.582 78.5859C291.582 77.7901 292.368 76.9076 293.681 76.9076C294.121 76.8768 294.559 76.981 294.938 77.2062C295.318 77.4314 295.619 77.767 295.804 78.1683L295.112 78.6489H295.01C294.895 78.3853 294.702 78.1633 294.457 78.0126C294.213 77.8619 293.928 77.7898 293.642 77.8059C292.989 77.8059 292.612 78.1447 292.612 78.5544C292.612 78.9641 292.777 79.2004 293.988 79.6574C295.513 80.2326 295.969 80.7447 295.969 81.6351C295.969 82.5254 295.088 83.3764 293.736 83.3764C293.256 83.3962 292.779 83.2805 292.361 83.0423C291.942 82.8041 291.599 82.453 291.37 82.029Z" fill="#313C52"/>
</g>
<defs>
<linearGradient id="paint0_linear_579_330" x1="172.266" y1="24.2205" x2="127.476" y2="24.2205" gradientUnits="userSpaceOnUse">
<stop stop-color="#2A2B2C"/>
<stop offset="1" stop-color="#696666"/>
</linearGradient>
<linearGradient id="paint1_linear_579_330" x1="40.4328" y1="4.295" x2="40.4328" y2="45.9122" gradientUnits="userSpaceOnUse">
<stop stop-color="#2A2B2C"/>
<stop offset="1" stop-color="#696666"/>
</linearGradient>
<linearGradient id="paint2_linear_579_330" x1="15.6671" y1="7.21845" x2="15.6671" y2="27.6174" gradientUnits="userSpaceOnUse">
<stop stop-color="#2A2B2C"/>
<stop offset="1" stop-color="#696666"/>
</linearGradient>
<linearGradient id="paint3_linear_579_330" x1="252.348" y1="-1.17022" x2="252.348" y2="36.145" gradientUnits="userSpaceOnUse">
<stop stop-color="#2A2B2C"/>
<stop offset="1" stop-color="#696666"/>
</linearGradient>
<linearGradient id="paint4_linear_579_330" x1="261.663" y1="12.1388" x2="261.663" y2="50.4231" gradientUnits="userSpaceOnUse">
<stop stop-color="#2A2B2C"/>
<stop offset="1" stop-color="#696666"/>
</linearGradient>
<linearGradient id="paint5_linear_579_330" x1="254.836" y1="14.215" x2="254.836" y2="38.4589" gradientUnits="userSpaceOnUse">
<stop stop-color="#2A2B2C"/>
<stop offset="1" stop-color="#696666"/>
</linearGradient>
<clipPath id="clip0_579_330">
<rect width="296" height="86" fill="white"/>
</clipPath>
</defs>
</svg>
