<svg width="271" height="49" viewBox="0 0 271 49" fill="none" xmlns="http://www.w3.org/2000/svg">
<path d="M22.3225 6.51715C22.986 4.46963 25.8828 4.46963 26.5463 6.51716L29.4227 15.3934C29.7194 16.309 30.5722 16.9291 31.5346 16.9291L40.8553 16.9291C43.0044 16.9291 43.8995 19.678 42.1625 20.9434L34.6116 26.4442C33.8356 27.0095 33.5109 28.0096 33.8069 28.9229L36.6886 37.8158C37.3518 39.8622 35.0083 41.5611 33.2696 40.2945L25.7416 34.8104C24.9626 34.2429 23.9063 34.2429 23.1273 34.8104L15.5993 40.2945C13.8606 41.5611 11.5171 39.8622 12.1802 37.8158L15.062 28.9229C15.3579 28.0096 15.0332 27.0095 14.2573 26.4442L6.7064 20.9434C4.96933 19.678 5.86445 16.9291 8.01357 16.9291L17.3343 16.9291C18.2967 16.9291 19.1495 16.309 19.4462 15.3934L22.3225 6.51715Z" fill="#FBDE42"/>
<path d="M77.8554 6.51715C78.5189 4.46963 81.4156 4.46963 82.0791 6.51716L84.9555 15.3934C85.2522 16.309 86.105 16.9291 87.0674 16.9291L96.3881 16.9291C98.5372 16.9291 99.4324 19.678 97.6953 20.9434L90.1444 26.4442C89.3684 27.0095 89.0438 28.0096 89.3397 28.9229L92.2215 37.8158C92.8846 39.8622 90.5411 41.5611 88.8024 40.2945L81.2744 34.8104C80.4954 34.2429 79.4391 34.2429 78.6601 34.8104L71.1321 40.2945C69.3934 41.5611 67.0499 39.8622 67.7131 37.8158L70.5948 28.9229C70.8908 28.0096 70.5661 27.0095 69.7901 26.4442L62.2392 20.9434C60.5022 19.678 61.3973 16.9291 63.5464 16.9291L72.8671 16.9291C73.8295 16.9291 74.6823 16.309 74.979 15.3934L77.8554 6.51715Z" fill="#FBDE42"/>
<path d="M133.388 6.51715C134.052 4.46963 136.948 4.46963 137.612 6.51716L140.488 15.3934C140.785 16.309 141.638 16.9291 142.6 16.9291L151.921 16.9291C154.07 16.9291 154.965 19.678 153.228 20.9434L145.677 26.4442C144.901 27.0095 144.576 28.0096 144.872 28.9229L147.754 37.8158C148.417 39.8622 146.074 41.5611 144.335 40.2945L136.807 34.8104C136.028 34.2429 134.972 34.2429 134.193 34.8104L126.665 40.2945C124.926 41.5611 122.583 39.8622 123.246 37.8158L126.128 28.9229C126.423 28.0096 126.099 27.0095 125.323 26.4442L117.772 20.9434C116.035 19.678 116.93 16.9291 119.079 16.9291L128.4 16.9291C129.362 16.9291 130.215 16.309 130.512 15.3934L133.388 6.51715Z" fill="#FBDE42"/>
<path d="M188.921 6.51715C189.584 4.46963 192.481 4.46963 193.145 6.51716L196.021 15.3934C196.318 16.309 197.171 16.9291 198.133 16.9291L207.454 16.9291C209.603 16.9291 210.498 19.678 208.761 20.9434L201.21 26.4442C200.434 27.0095 200.109 28.0096 200.405 28.9229L203.287 37.8158C203.95 39.8622 201.607 41.5611 199.868 40.2945L192.34 34.8104C191.561 34.2429 190.505 34.2429 189.726 34.8104L182.198 40.2945C180.459 41.5611 178.115 39.8622 178.779 37.8158L181.66 28.9229C181.956 28.0096 181.632 27.0095 180.856 26.4442L173.305 20.9434C171.568 19.678 172.463 16.9291 174.612 16.9291L183.933 16.9291C184.895 16.9291 185.748 16.309 186.045 15.3934L188.921 6.51715Z" fill="#FBDE42"/>
<path d="M244.454 6.51715C245.117 4.46963 248.014 4.46963 248.677 6.51716L251.554 15.3934C251.85 16.309 252.703 16.9291 253.666 16.9291L262.986 16.9291C265.136 16.9291 266.031 19.678 264.294 20.9434L256.743 26.4442C255.967 27.0095 255.642 28.0096 255.938 28.9229L258.82 37.8158C259.483 39.8622 257.139 41.5611 255.401 40.2945L247.873 34.8104C247.094 34.2429 246.037 34.2429 245.258 34.8104L237.73 40.2945C235.992 41.5611 233.648 39.8622 234.311 37.8158L237.193 28.9229C237.489 28.0096 237.164 27.0095 236.388 26.4442L228.838 20.9434C227.1 19.678 227.996 16.9291 230.145 16.9291L239.465 16.9291C240.428 16.9291 241.281 16.309 241.577 15.3934L244.454 6.51715Z" fill="#FBDE42"/>
</svg>
